/* XPM */
static const char *CheckBox[] = {
/* columns rows colors chars-per-pixel */
"24 24 33 1 ",
"  c #FBFCFC",
". c #F4F5F5",
"X c #E5E6E6",
"o c #D7D8D8",
"O c #E5E6E5",
"+ c gray100",
"@ c #F9F9F9",
"# c #EAEAEA",
"$ c #E7E7E7",
"% c gray90",
"& c #E1E1E1",
"* c gray87",
"= c gainsboro",
"- c #DADADA",
"; c #D5D5D5",
": c LightGray",
"> c #CECECE",
", c gray79",
"< c #C6C6C6",
"1 c #C3C3C3",
"2 c #C1C1C1",
"3 c #C0C0C0",
"4 c gray",
"5 c gray73",
"6 c #B9B9B9",
"7 c gray71",
"8 c #AEAEAE",
"9 c gray68",
"0 c gray67",
"q c gray64",
"w c gray56",
"e c #767676",
"r c black",
/* pixels */
"o4888888883=;7qqqqqqqq6o",
"4.++++++++.47-########o6",
"8++++++++++8q%%%%%%%%%%q",
"8.       @@9q-========-q",
"8#.........0q>ooooooo;:q",
"8=*******==8q3211111122q",
"8-&&&&&&&*o8q41<<<<<<14q",
"8*%$$$$$$%=8q1,>,,,,,,3q",
"8%$#######&8q,,>>>>>>>1q",
"9%%%XXXX%%&8q<,,,,,,,<<q",
"3>;::::::;>3655666666565",
"-3898888993=;6qqqqqqqq6o",
"o4988888883=;7qqqqqqqq6o",
"4.++++++++.47-##$#$#$#o6",
"8+++++++#w.8q%%O%OXX>w*q",
"8.    @.ww@9qo=====oew-q",
"8#.....we#.9q>ooooowe>:q",
"8=****8e<==8q22111qe832q",
"8>w=&3e7&*o8q7w110eq<14q",
"8,ew;ew&X%=8q8ee6ew1,,3q",
"8%-eee####&8q,4eee<>>,1q",
"9&%;1=$XX%&8q<,494<,,,1q",
"2>;::::::;>2665666666555",
"-2889998893=;6qqqqqqqq5o"
};
