/* XPM */
static const char *Glass[] = {
/* columns rows colors chars-per-pixel */
"64 68 206 2 ",
"   c #5B5B5B",
".  c #5B5C5B",
"X  c #5F5F5F",
"o  c #605F5F",
"O  c #5F605F",
"+  c #5F5F60",
"@  c #606060",
"#  c #656564",
"$  c #646465",
"%  c #656465",
"&  c #646565",
"*  c #656565",
"=  c #6C6B6B",
"-  c #6B6C6B",
";  c #6C6C6B",
":  c #6B6B6C",
">  c #6C6B6C",
",  c #6B6C6C",
"<  c #6C6C6C",
"1  c #737273",
"2  c #727373",
"3  c gray45",
"4  c gray48",
"5  c #7B7B7A",
"6  c #7A7A7B",
"7  c #7B7A7B",
"8  c #7A7B7B",
"9  c #7B7B7B",
"0  c #838282",
"q  c #828382",
"w  c #838382",
"e  c #828283",
"r  c #838283",
"t  c #828383",
"y  c #838383",
"u  c #8A8A89",
"i  c #8A898A",
"p  c #898A8A",
"a  c gray54",
"s  c #909090",
"d  c #919090",
"f  c #909190",
"g  c #919190",
"h  c #909091",
"j  c #909191",
"k  c #959595",
"l  c #969595",
"z  c #969695",
"x  c #959596",
"c  c #969596",
"v  c #959696",
"b  c gray59",
"n  c #989897",
"m  c #989798",
"M  c #979898",
"N  c #989898",
"B  c gray60",
"V  c #9A9999",
"C  c #99999A",
"Z  c #9A999A",
"A  c #9A9A9A",
"S  c #9B9A9A",
"D  c #9B9B9A",
"F  c #9A9A9B",
"G  c #9B9A9B",
"H  c #9A9B9B",
"J  c #9B9B9B",
"K  c gray61",
"L  c #9D9C9C",
"P  c #9C9D9C",
"I  c #9D9D9C",
"U  c #9C9C9D",
"Y  c #9D9C9D",
"T  c #9E9E9D",
"R  c gray62",
"E  c #A09F9F",
"W  c #9FA09F",
"Q  c #A0A09F",
"!  c #9F9FA0",
"~  c #A09FA0",
"^  c #9FA0A0",
"/  c #A0A0A0",
"(  c gray63",
")  c #A2A1A1",
"_  c #A1A2A1",
"`  c #A2A2A1",
"'  c #A1A1A2",
"]  c #A2A1A2",
"[  c #A1A2A2",
"{  c #A2A2A2",
"}  c #A3A2A2",
"|  c #A3A3A2",
" . c #A2A2A3",
".. c #A3A2A3",
"X. c #A2A3A3",
"o. c gray64",
"O. c #A4A3A3",
"+. c #A3A4A3",
"@. c #A4A4A3",
"#. c #A3A3A4",
"$. c #A4A3A4",
"%. c #A3A4A4",
"&. c #A4A4A4",
"*. c gray77",
"=. c #C5C5C5",
"-. c #C6C5C5",
";. c #C5C6C5",
":. c #C5C5C6",
">. c #C6C5C6",
",. c #C5C6C6",
"<. c gray78",
"1. c #C8C7C7",
"2. c #C7C8C7",
"3. c #C8C8C7",
"4. c #C7C7C8",
"5. c #C8C7C8",
"6. c #C7C8C8",
"7. c #C8C8C8",
"8. c #CACACA",
"9. c #CBCACA",
"0. c #CACBCA",
"q. c #CBCBCA",
"w. c #CACACB",
"e. c #CBCACB",
"r. c #CACBCB",
"t. c #CBCBCB",
"y. c #CECECE",
"u. c #CFCECE",
"i. c #CECFCE",
"p. c #CFCFCE",
"a. c #CECECF",
"s. c #CFCECF",
"d. c #CECFCF",
"f. c #D2D2D2",
"g. c #D3D2D2",
"h. c #D2D3D2",
"j. c #D3D3D2",
"k. c #D2D2D3",
"l. c #D3D2D3",
"z. c #D2D3D3",
"x. c LightGray",
"c. c #D7D6D6",
"v. c #D7D7D6",
"b. c #D6D6D7",
"n. c #D7D6D7",
"m. c #D6D7D7",
"M. c #D7D7D7",
"N. c gray86",
"B. c #DCDBDB",
"V. c #DBDCDB",
"C. c #DFDFDF",
"Z. c #E0DFDF",
"A. c #DFE0DF",
"S. c #E0E0DF",
"D. c #DFDFE0",
"F. c #E0DFE0",
"G. c #DFE0E0",
"H. c gray88",
"J. c #E2E3E3",
"K. c gray89",
"L. c #E4E3E3",
"P. c #E3E4E3",
"I. c #E4E4E3",
"U. c #E3E3E4",
"Y. c #E4E3E4",
"T. c #E3E4E4",
"R. c #E4E4E4",
"E. c #E7E7E7",
"W. c #E8E7E7",
"Q. c #E7E8E7",
"!. c #E8E8E7",
"~. c #E7E7E8",
"^. c #E8E7E8",
"/. c gray92",
"(. c #ECEBEB",
"). c #EBECEB",
"_. c #ECECEB",
"`. c #EBEBEC",
"'. c #ECEBEC",
"]. c #EBECEC",
"[. c #EFEFEF",
"{. c #F0EFEF",
"}. c #EFF0EF",
"|. c #F0F0EF",
" X c #EFEFF0",
".X c #F0EFF0",
"XX c #EFF0F0",
"oX c gray94",
"OX c #F3F3F3",
"+X c #F4F3F3",
"@X c #F3F4F3",
"#X c #F3F3F4",
"$X c #F4F3F4",
"%X c #F3F4F4",
"&X c #F6F7F7",
"*X c gray97",
"=X c gray98",
"-X c #FBFAFA",
";X c #FAFBFA",
":X c #FAFAFB",
">X c #FBFAFB",
",X c #FBFBFB",
"<X c #FDFCFD",
"1X c #FCFDFD",
"2X c #FDFDFD",
"3X c gray100",
/* pixels */
"3X3X3X3X3X3X3X3X3X3X3X3X3X3X3X3X3X3X3X3X3X3X3X3X3X3X3X3X3X3X3X3X    . . . . .   . . . . . .       .     . . . . . . . .       . ",
"3X3X3X3X3X3X3X*X3X3X3X3X3X*X3X3X3X3X3X3X3X*X3X3X3X3X3X*X*X3X3X3X. . + + + + + o + + + + + + + + + o o o + + + + + + o + + o o o ",
"*X3X*X*X3X&X&X*X&X*X3X&X*X3X&X*X*X*X3X*X*X*X3X&X&X3X*X*X*X3X3X*X* * * * * * * * * * * * * * * * * * * * * * * * * * * % * * * * ",
"*X*X*X*X*X*X*X*X*X*X*X*X*X*X*X*X*X*X*X*X*X*X*X*X*X*X*X*X*X*X*X*X, , , , , , > , < < < < , , , > , , > > , < < < , > , > , , , , ",
"*X{.*X X*X X*X*X*X.X*X X*X*X.X.X[.*X X*X X*X*XXX*X*X*X[.*X}.*XXX1 1 1 1 1 1 1 1 3 3 3 3 1 1 1 1 1 1 1 1 1 1 1 1 1 1 1 1 1 1 1 1 ",
"[.[.[.[. X[. X[.[.[.[.[.[.[..X.X[.[.[.[.[.[.[.[.[.[.[.[.[.[.[.[.7 7 7 7 7 7 7 7 9 9 9 9 7 7 7 7 7 7 7 7 7 7 7 9 7 7 7 7 7 7 7 7 ",
"[.[.[.[.[.[.~.[.[.I.[.[.[.[.[.[.[.[.~.[.[.!.^.[.I.[.[.[.[.[.~.[.q q q q q q q q y y q q q q q q q q q q q q q y q q q q q q q q ",
"I.I.I.I.I.~.~.I.~.I.^.I.I.^.I.I.~.~.I.[.I.I.[.I.W.W.I.I.I.I.~.~.u u u u u u u u u u u u u u u u u u u u u u u u u u u u u u u u ",
"I.I.I.S.I.I.I.I.I.I.S.I.I.I.I.I.S.I.I.I.I.I.I.S.I.I.I.S.I.I.I.I.k h h h u k f s k u k f k u k f u k u k u h u h k k k u k h h h ",
"G.A.A.C.D.D.D.C.F.D.C.C.S.I.C.C.C.C.S.S.C.I.C.C.D.C.C.C.D.A.C.A.M M k k k k k k k k k k k k k k M k M k M k R k k k k k k k k k ",
":.:.:.:.:.:.:.:.:.:.:.:.*.:.:.:.:.:.:.:.:.:.:.*.:.:.:.*.:.:.:.:.&.&.&.&.&.&.&.&.&.&.&.&.&.&.&.&.&.&.&.&.&.&.&.&.&.&.&.&.&.&.&.&.",
":.:.:.:.:.:.:.4.:.:.:.:.:.:.:.:.:.:.:.:.:.:.:.:.:.:.:.:.:.:.:.:.&.&.&.&.&.&.&.&.&.&.&.&.Q &.&.&.&.&.&.&.&.&.&.&.&.&.&.&.&.&.&.&.",
":.2.2.2.6.4.6.6.6.6.9.9.:.1.3.3.9.4.6.5.6.6.6.9.:.6.2.6.9.6.9.4.&.&.~ &.&.^ &.&.&.&.&.~ &.&.&.&.&.&.&.~ &.~ &.^ &.&.~ &.&.&.&.&.",
"9.9.9.9.9.9.9.9.9.9.9.9.3.9.9.9.9.9.9.9.9.9.9.9.9.9.9.9.9.9.9.9.&.R &.R ! &.W &.&.R &.~ &.! E &.~ &.R &.&.R R &.R &.~ &.E ~ ~ E ",
"d.d.9.d.d.d.9.9.9.x.s.9.d.d.d.9.d.d.9.d.d.d.d.d.d.9.9.d.d.9.d.9.R R ~ &.! ! ! W R R E E R R W W ! ~ ! ~ Q &.~ ~ E E ~ ~ ~ R &.R ",
"x.x.x.x.x.x.x.x.x.x.x.x.x.x.x.x.x.x.x.x.x.x.x.x.x.x.x.x.x.x.x.d.R R R R R R R R R R R R R R R R R R R R R R R R R R R R R R R R ",
"M.M.x.M.M.x.x.M.b.b.b.b.b.M.b.b.b.b.b.M.M.x.x.x.b.b.b.x.b.b.x.C.R R R n R R R R R R M R R R b R R R R R R n R R m R R R n R R R ",
"C.C.x.C.C.C.C.C.b.C.C.M.M.C.b.C.C.C.x.C.C.C.C.C.b.C.C.C.C.C.M.C.k R M R k R k R k R m R b m R R R M R M R R M R k R R b R b R b ",
"C.C.C.C.C.C.C.C.D.D.D.D.F.D.D.D.C.C.C.C.C.C.C.C.D.D.D.D.C.C.C.D.n R k R k R M M M m b R m R k R m k k M k M M k m k R R b R k R ",
"A.I.I.I.I.I.I.S.I.I.I.I.I.I.I.I.A.I.I.I.I.I.I.F.I.F.~.D.D.I.I.F.k k k R n k k R k R k R b k k R R R m b R n m R b R k b b b b k ",
"I.I.D.I.I.I.I.I.I.I.I.D.I.I.D.~.~.D.I.I.I.I.I.I.~.D.I.I.~.D.I.I.M M M M M M M M k M M M M M M M k k M M M M M M M M M M R M M M ",
"I.D.~.I.I.F.D.I.I.D.D.~.I.D.~.D.D.I.I.D.F.I.I.F.D.I.I.I.D.I.I.D.M M M M M M M M M M M M M M M M M M M M M M M M M M M M k k M M ",
"I.D.I.I.I.I.I.I.D.~.I.I.I.D.I.I.I.I.D.~.I.I.I.I.I.I.D.~.I.I.D.~.M M M M M M M M M M M M M M M M M M M M M M M M M M M M M M M M ",
"D.~.D.I.I.D.I.I.~.D.I.I.D.~.I.I.I.I.~.D.I.I.D.I.I.D.~.D.I.I.~.D.M M M M M M M M M M M M M M M M M M M M M M M M M M M M M M M M ",
"I.I.D.~.I.I.I.D.I.I.D.~.I.I.I.D.D.~.D.I.~.D.I.I.D.~.D.I.~.D.I.I.M M M M M M M M M M M M M M M M M M M M M M M M M M M M M M M M ",
"I.I.~.D.I.D.D.~.I.I.~.D.I.D.D.~.~.D.I.I.D.I.I.I.~.D.I.I.D.I.I.I.M M M M M M M M M M M M M M M M M M M M M M M M M M M M M M M M ",
"~.D.D.I.D.~.I.I.~.D.D.I.D.~.I.I.I.I.I.D.I.I.D.~.I.I.I.D.I.I.D.~.M M M M M M M M M M M M M M M M M M M M M M M M M M M M M M M M ",
"D.I.I.I.~.D.I.I.D.I.I.I.~.D.I.I.I.I.D.~.I.D.~.D.I.I.D.~.I.D.~.D.M M M M M M M M M M M M M M M M M M M M M M M M M M M M M M M M ",
"I.I.~.D.I.I.~.D.I.I.~.D.I.I.~.D.D.~.I.I.D.~.I.I.D.~.I.I.D.~.I.I.M M M M M M M M M M M M M M M M M M M M M M M M M M M M M M M M ",
"I.I.D.I.I.I.D.I.I.I.D.I.I.I.D.I.~.D.I.I.~.D.I.I.~.D.I.I.~.D.I.I.M M M M M M M M M M M M M M M M M M M M M M M M M M M M M M M M ",
"D.~.D.I.D.~.D.I.D.~.D.I.D.~.D.I.D.I.I.D.D.I.I.D.D.I.I.D.D.I.I.D.M M M M M M M M M M M M M M M M M M M M M M M M M M M M M M M M ",
"~.D.I.I.~.D.I.I.~.D.I.I.~.D.I.I.I.I.D.~.I.I.D.~.I.I.D.~.I.I.D.~.M M M M M M M M M M M M M M M M M M M M M M M M M M M M M M M M ",
"D.~.D.I.D.~.D.I.D.~.D.I.D.~.D.I.D.~.D.I.D.~.D.I.D.~.D.I.D.~.D.I.M M M M M M M M M M M M M M M M M M M M M M M M M M M M M M M M ",
"I.D.~.I.I.D.~.I.I.D.~.I.I.D.~.I.I.D.~.I.I.D.~.I.I.D.~.I.I.D.~.I.M M M M M M M M M M M M M M M M M M M M M M M M M M M M M M M M ",
"I.I.I.I.I.I.I.I.I.I.I.I.I.I.I.I.I.I.I.I.I.I.I.I.I.I.I.I.I.I.I.I.M M M M M M M M M M M M M M M M M M M M M M M M M M M M M M M M ",
"D.I.D.~.D.I.D.~.D.I.D.~.D.I.D.~.D.I.D.~.D.I.D.~.D.I.D.~.D.I.D.~.M M M M M M M M M M M M M M M M M M M M M M M M M M M M M M M M ",
"~.I.I.I.D.I.I.D.~.I.I.I.D.I.I.D.~.I.I.I.D.I.I.D.~.I.I.I.D.I.I.D.M M M M M M M M M M M M M M M M M M M M M M M M M M M M M M M M ",
"D.I.~.D.~.D.I.I.D.I.~.D.~.D.I.I.D.I.~.D.~.D.I.I.D.I.~.D.~.D.I.I.M M M M M M M M M M M M M M M M M M M M M M M M M M M M M M M M ",
"I.I.D.~.D.~.I.D.I.I.D.~.D.~.I.D.I.I.D.~.D.~.I.D.I.I.D.~.D.~.I.D.M M M M M M M M M M M M M M M M M M M M M M M M M M M M M M M M ",
"D.I.I.D.I.I.I.~.D.I.I.D.I.I.I.~.D.I.I.D.I.I.I.~.D.I.I.D.I.I.I.~.M M M M M M M M M M M M M M M M M M M M M M M M M M M M M M M M ",
"~.D.I.D.~.I.I.I.D.I.I.D.~.D.I.D.~.D.I.D.~.I.I.I.D.I.I.D.~.D.I.D.M M M M M M M M M M M M M M M M M M M M M M M M M M M M M M M M ",
"I.I.I.I.D.I.~.D.~.D.I.I.I.I.I.I.I.I.I.I.D.I.~.D.~.D.I.I.I.I.I.I.M M M M M M M M M M M M M M M M M M M M M M M M M M M M M M M M ",
"I.~.D.I.I.I.D.~.D.~.I.D.I.~.D.I.I.~.D.I.I.I.D.~.D.~.I.D.I.~.D.I.M M M M M M M M M M M M M M M M M M M M M M M M M M M M M M M M ",
"I.D.~.D.D.I.I.D.I.I.I.~.I.D.~.D.I.D.~.D.D.I.I.D.I.I.I.~.I.D.~.D.M M M M M M M M M M M M M M M M M M M M M M M M M M M M M M M M ",
"D.~.D.I.~.I.I.I.D.I.I.D.D.~.D.I.D.~.D.I.~.I.I.I.D.I.I.D.D.~.D.I.M M M M M M M M M M M M M M M M M M M M M M M M M M M M M M M M ",
"I.D.~.I.D.I.~.D.~.D.I.I.I.D.~.I.I.D.~.I.D.I.~.D.~.D.I.I.I.D.~.I.M M M M M M M M M M M M M M M M M M M M M M M M M M M M M M M M ",
"I.I.I.I.I.I.D.~.D.~.I.D.I.I.I.I.I.I.I.I.I.I.D.~.D.~.I.D.I.I.I.I.M M M M M M M M M M M M M M M M M M M M M M M M M M M M M M M M ",
"D.I.D.~.D.I.I.D.I.I.I.~.D.I.D.~.D.I.D.~.D.I.I.D.I.I.I.~.D.I.D.~.M M M M M M M M M M M M M M M M M M M M M M M M M M M M M M M M ",
"~.I.I.I.D.I.I.D.~.D.I.D.~.I.I.I.D.I.I.D.~.D.I.D.~.I.I.I.D.I.I.D.M M M M M M M M M M M M M M M M M M M M M M M M M M M M M M M M ",
"D.I.~.D.~.D.I.I.I.I.I.I.D.I.~.D.~.D.I.I.I.I.I.I.D.I.~.D.~.D.I.I.M M M M M M M M M M M M M M M M M M M M M M M M M M M M M M M M ",
"I.I.D.~.D.~.I.D.I.~.D.I.I.I.D.~.D.~.I.D.I.~.D.I.I.I.D.~.D.~.I.D.M M M M M M M M M M M M M M M M M M M M M M M M M M M M M M M M ",
"D.I.I.D.I.I.I.~.I.D.~.D.D.I.I.D.I.I.I.~.I.D.~.D.D.I.I.D.I.I.I.~.M M M M M M M M M M M M M M M M M M M M M M M M M M M M M M M M ",
"~.D.I.D.~.D.I.D.D.~.D.I.~.I.I.I.D.I.I.D.D.~.D.I.~.D.I.D.~.D.I.D.M M M M M M M M M M M M M M M M M M M M M M M M M M M M M M M M ",
"I.I.I.I.I.I.I.I.I.D.~.I.D.I.~.D.~.D.I.I.I.D.~.I.I.I.I.I.I.I.I.I.M M M M M M M M M M M M M M M M M M M M M M M M M M M M M M M M ",
"I.~.D.I.I.~.D.I.I.I.I.I.I.I.D.~.D.~.I.D.I.I.I.I.I.~.D.I.I.~.D.I.M M M M M M M M M M M M M M M M M M M M M M M M M M M M M M M M ",
"I.D.~.D.I.D.~.D.D.I.D.~.D.I.I.D.I.I.I.~.D.I.D.~.I.D.~.D.I.D.~.D.M M M M M M M M M M M M M M M M M M M M M M M M M M M M M M M M ",
"D.~.D.I.D.~.D.I.~.D.I.D.~.I.I.I.D.I.I.D.~.D.I.D.D.~.D.I.D.~.D.I.M M M M M M M M M M M M M M M M M M M M M M M M M M M M M M M M ",
"I.D.~.I.I.D.~.I.I.I.I.I.D.I.~.D.~.D.I.I.I.I.I.I.I.D.~.I.I.D.~.I.M M M M M M M M M M M M M M M M M M M M M M M M M M M M M M M M ",
"I.I.I.I.I.I.I.I.I.~.D.I.I.I.D.~.D.~.I.D.I.~.D.I.I.I.I.I.I.I.I.I.M M M M M M M M M M M M M M M M M M M M M M M M M M M M M M M M ",
"D.I.D.~.D.I.D.~.I.D.~.D.D.I.I.D.I.I.I.~.I.D.~.D.D.I.D.~.D.I.D.I.M M M M M M M M M M M M M M M M M M M M M M M M M M M M M M M M ",
"~.I.I.I.D.I.I.D.D.~.D.I.~.I.I.I.D.I.I.D.D.~.D.I.~.I.I.I.I.I.D.I.M M M M M M M M M M M M M M M M M M M M M M M M M M M M M M M M ",
"D.I.~.D.~.D.I.I.I.D.~.I.D.I.~.D.~.D.I.I.I.D.~.I.D.I.~.D.I.I.I.I.M M M M M M M M M M M M M M M M M M M M M M M M M M M M M M M M ",
"I.I.D.~.D.~.I.D.I.I.I.I.I.I.D.~.D.~.I.D.I.I.I.I.I.I.D.~.I.G.I.I.M M M M M M M M M M M M M M M M M M M M M M M M M M M M M M M M ",
"D.I.I.D.I.I.I.~.D.I.D.~.D.I.I.D.I.I.I.~.D.I.D.~.D.I.I.D.I.I.I.I.M M M M M M M M M M M M M M M M M M M M M M M M M M M M M M M M ",
"~.D.I.D.~.I.I.I.D.I.I.D.~.D.I.D.~.I.I.I.D.I.I.D.~.D.I.D.~.I.I.I.M M M M M M M M M M M M M M M M M M M M M M M M M M M M M M M M ",
"I.I.I.I.D.I.~.D.~.D.I.I.I.I.I.I.D.I.~.D.~.D.I.I.I.I.I.I.D.I.~.D.M M M M M M M M M M M M M M M M M M M M M M M M M M M M M M M M ",
"I.~.D.I.I.I.D.~.D.~.I.D.I.~.D.I.I.I.D.~.D.~.I.D.I.~.D.I.I.I.D.~.M M M M M M M M M M M M M M M M M M M M M M M M M M M M M M M M ",
"I.D.~.D.D.I.I.D.I.I.I.~.I.D.~.D.D.I.I.D.I.I.I.~.I.D.~.D.D.I.I.D.M M M M M M M M M M M M M M M M M M M M M M M M M M M M M M M M "
};
