/* XPM */
static const char *ImageNotLoaded[] = {
/* columns rows colors chars-per-pixel */
"16 16 65 1 ",
"  c black",
". c gray100",
"X c #6890C2",
"o c #6A92C3",
"O c #6D94C4",
"+ c #7096C6",
"@ c #7399C7",
"# c #769BC8",
"$ c #7A9ECA",
"% c #7DA0CB",
"& c #80A2CC",
"* c #84A5CE",
"= c #87A7CF",
"- c #8AAAD0",
"; c #8DACD2",
": c #90AED3",
"> c #92AFD4",
", c #94B1D4",
"< c #216FB4",
"1 c #2270B5",
"2 c #2372B7",
"3 c #2373B7",
"4 c #2576BA",
"5 c #2577BA",
"6 c #2474B8",
"7 c #2679BC",
"8 c #277ABD",
"9 c #347FBF",
"0 c #5395CA",
"q c #8CB8DC",
"w c #D3E3F1",
"e c #277CBE",
"r c #287DBF",
"t c #287DBE",
"y c #297FC0",
"u c #2980C0",
"i c #297DBF",
"p c #2A81C2",
"a c #2A80C1",
"s c #3686C2",
"d c #4692CA",
"f c #4691C8",
"g c #5295CA",
"h c #5498CC",
"j c #8EBDE0",
"k c #8DBBDD",
"l c #9BC2E1",
"z c #B9D6EC",
"x c #C6DDEE",
"c c #D3E4F1",
"v c #2A83C2",
"b c #2C86C6",
"n c #2B84C4",
"m c #2B83C3",
"M c #2D88C7",
"N c #2C85C5",
"B c #2C86C5",
"V c #2E8AC9",
"C c #2E89C8",
"Z c #2F8CCA",
"A c #8DBCDE",
"S c #9CC6E3",
"D c #E3EFF7",
"F c #F1F7FB",
"G c gray100",
/* pixels */
",,,,,,,,,,,,,,,,",
">..............>",
":.ZZZZZZZZZZZZ.:",
";.VVVbbNNNbCVV.;",
"-.MMnpjjzSdpMM.-",
"=.BBvADuf.DyBB.=",
"*.mmahkrs.Ftmm.*",
"&.aayiitlx08aa.&",
"%.rrrregq77err.%",
"$.888849948888.$",
"#.55553cc35555.#",
"@.66661ww16666.@",
"+.2222<<<<2222.+",
"O.111111111111.O",
"o..............o",
"XXXXXXXXXXXXXXXX"
};
