/* XPM */
static const char *LogoTexted[] = {
/* columns rows colors chars-per-pixel */
"116 32 64 1 ",
"  c #29292A",
". c #272728",
"X c #262627",
"o c #2D2D2E",
"O c #2B2B2C",
"+ c #2A2A2B",
"@ c #484849",
"# c #F2F2F4",
"$ c #69696A",
"% c #B4B5BB",
"& c #EBEDF4",
"* c #112562",
"= c #3E5290",
"- c #C7CBD8",
"; c #1C357E",
": c #233C85",
"> c #5D6EA1",
", c #7483AE",
"< c #8490B0",
"1 c #929CBA",
"2 c #9EA7C0",
"3 c #353840",
"4 c #ADB2C1",
"5 c #D5D9E4",
"6 c #4D5771",
"7 c #B5BDD2",
"8 c #E1E3E8",
"9 c #97989A",
"0 c #F9FAFC",
"q c #BBBCBD",
"w c #0F1010",
"e c #1B1C1C",
"r c #292A2A",
"t c #282929",
"y c #272828",
"u c #2B2C2C",
"i c #B4B5B5",
"p c #2B2C2B",
"a c #D4D5D4",
"s c #F8F8F7",
"d c gray100",
"f c #FDFDFD",
"g c gray98",
"h c #EEEEEE",
"j c #DFDFDF",
"k c gray86",
"l c gray81",
"z c #C6C6C6",
"x c gray75",
"c c #AEAEAE",
"v c #A0A0A0",
"b c #8E8E8E",
"n c #808080",
"m c #515151",
"M c gray25",
"N c gray19",
"B c #2C2C2C",
"V c #252525",
"C c gray14",
"Z c #232323",
"A c #202020",
"S c #181818",
"D c #101010",
"F c black",
/* pixels */
"dddddddddddddddd#57<1fdddddddddddddddddddddddddddddddddddddddddddddddddddddddddddddddddddddddddddddddddddddddddddddd",
"ddddddddddd08-2>=;;*=sdddddddddddddddddddddddddddddddddddddddddddddddddddddddddddddddddddddddddddddddddddddddddddddd",
"ddddddd&57,=:;;;;;;;;5dddddddddddddddddddddddddddddddddddddddddddddddddddddddddddddddddddddddddddddddddddddddddddddd",
"dd08-1>::;;:::;;;;;;*<dddddddddddddddddddddddddddddddddddddddddddddddddddddddddddddddddddddddddddddddddddddddddddddd",
"dh=:;;;:::;:::::;;;;;=fddddddddddddddddddddddddddddddddddddddddddddddddddddddddddddddddddddddddddddddddddddddddddddd",
"f-*;;:2=;::=:::::::;;;8fdddddddddddddddddddddddddddddddddddddddddddddddddddddddddddddddddddddddddddddddddddddddddddd",
"dx*;;=>2::,,>;::::;;;*1ddddddddddddddddddddddddddddddddddddddddddddddddddddddddddddddddddddddddddddddddddMMldddddddd",
"d5+;;=><1:>>2:::;:;;;*=dddddddddddddbMmddddddf$MnlMMMMMMMMMMMMldMNFFFFMnhddddddddddddddddddddddddddddddddFFxdddddddd",
"dg6*;=:;1,<>,=:;;;;6>>vsddddddddddddhDFbdddddvFwjxFFFFFFFFFFFFxdFFNMMMFFDldddddddddddddddddddddddddddddddFFxdddddddd",
"df9*;>=:==::;;:=><4zlz9xdddddddddddddnFDhdddhAFnddddddxFFdddddddFFxdddjNFNdddddddddddddddddddddddddddddddFFxdddddddd",
"dfx*::::::=>,2-8jzvb$MAmddddddddddddddAF$dddnFNfddddddxFFdddddddFFxddddjFFlddddddddddddddddddddddddddddddFFxdddddddd",
"df&3;:=>,75&57vbmMyAAVCM#dddddddddddddxFFjdjFFxdddddddxFFdddddddFFxdddddFFxddddddhxxhddddddddddlxldddddddFFxdddddddd",
"ddf66-8854<nmN.ZrrppppyAiddddddddddddddmFmd$F$ddddddddxFFdddddddFFxddddxFDdddddlMFFFFmjddddddnDFFFAbdddddFFxddd$FDld",
"dddqnvb$3oyZtoNooBBpprre$ddddddddddddddjwF9FA#ddddddddxFFdddddddFFxdddxNFvddddcDFMnnAFDlddddMFD$n$FF$fdddFFxddvFDldd",
"ddf8@AACBoooNoooBBpprrrZMsddddddddddddddnFFFcdddddddddxFFdddddddFFNMMAFAcddddhDFvddff$FAdddnFNhdfflwFvdddFFxdxFDlddd",
"ddd0@eoooNNoooooBBp+ ryyAzfddddddddddddddFFDddddddddddxFFdddddddFFFFFFFDnddddnFMddddfhwFcdhDFxddddfnFNdddFFxlDDldddd",
"ddddbwoooooBoooBpBp+rrrye$ddddddddddddddbFFFbdddfdddddxFFdddddddFFxddhvDFMdddMFbdddddfmF$dxFDddddddlFFhddFFcAFvddddd",
"ddddzSyuBBBooBBpOppr .yyA@gddddddddddddjDFbFDhddddddddxFFdddddddFFxddddhDFvddFFxddddddnFMdnFMdddddddFFxddFFDFFcddddd",
"dddfh.ZopBppBBB++  ryyy.CZlddddddddddddmFndMF$ddddddddxFFdddddddFFxddddd$FmddFFxddddddnFMdnFMdddddddFFxddFFw$FDjdddd",
"dddd0$DO+OOOOOpO   .yy.XVSndddddddddddxFwhdlFFqdddddddxFFdddddddFFxdddddnFMddNFbdddddfmFndcFDddddddlFFdddFFcgMFNdddd",
"dddddcw+++OO+++ r..yy.VyVe@fddddddddddAFbddd$FAdddddddxFFdddddddFFxdddddMF$dd$FMdddddhFFxdhFFxddddd$FMdddFFxdhwF$ddd",
"ddddfaeXrrrr+  yr.yy.VyVVZyjdddddddddnFAdddd#DFnddddddxFFdddddddFFxddddbFFxddjDFbdddhmFMddd$FAhdddxFFxdddFFxddcFFcdd",
"dddddsMert   t y.yy.XXVVZZS9ddddddddjDFcdddddvFDjdddddxFFdddddddFF$nn$AFFbddddvFFMnnAFAjddd#NFD$n$FFnddddFFxddd$FDjd",
"ddddddnwytyyyyyyyXXVVXVVCZSmfdddddddmFMdddddddNFmdddddxFFdddddddFFFFFFFmxddddddxMFFFF$hdddddhnDFFFecdddddFFxddd#NFNh",
"ddddddzDXy...y.VyVXVXVZASSAMdddddddddddddddddddddfddddddddddddddjxxxxldddddddddddjxxdgfddddddddxxjdddddddddddddddddd",
"dddddd8rAXXXXVXXVVCASeZ3$cz8fddddddddddddddddddddddddddddddddddddddddddddddddddddddddddddddddddddddddddddddddddddddd",
"ddddfdf$D.VVVVZeSAC3nilkjxnldddddddddddddddddfdddddddddddddddddddddddddddddddddddddddddddddddddddddddddddddddddddddd",
"dddddddvwCZeSAymnqlkainnvxagdddddddddddddddddddddddddddddddddddddddddddddddddddddddddddddddddddddddddddddddddfdddddd",
"dddddddaSeom9zajacnncxasdddddddddddddddddddddddddddddddddddddddddddddddddddddddddddddddddddddddddddddddddddddddddddd",
"ddddddd#@ikjl9nncxj0fddddddddddddddddddddddddddddddddddddddddddddddddddddddddddddddddddddddddddddddddddddddddddddddd",
"dddddddf9nnbiz8ddddddddddddddddddddddddddddddddddddddddddddddddddddddddddddddddddddddddddddddddddddddddddddddddddddd",
"dddfdddfhlhgfddfdddddddddddddddddddddddddddddddddddddddddddddddddddddddddddddddddddddddddddddddddddddddddddddddddddd"
};
