/* XPM */
static const char *Nexhawks[] = {
/* columns rows colors chars-per-pixel */
"64 64 195 2 ",
"   c #040303",
".  c #050405",
"X  c #070607",
"o  c #080707",
"O  c #080708",
"+  c #0A0909",
"@  c #0C0B0B",
"#  c #0D0B0C",
"$  c #0D0C0C",
"%  c #0E0D0D",
"&  c #0F0E0E",
"*  c #111011",
"=  c #161515",
"-  c gray10",
";  c #1D1C1D",
":  c #1E1E1E",
">  c #202020",
",  c #232323",
"<  c gray14",
"1  c #252525",
"2  c #272727",
"3  c #282828",
"4  c #2A2A2A",
"5  c #2C2C2C",
"6  c #2F2F2F",
"7  c #313131",
"8  c #323232",
"9  c #343434",
"0  c gray21",
"q  c gray22",
"w  c gray23",
"e  c #3C3B3B",
"r  c gray24",
"t  c #3F3F3F",
"y  c #2F3F65",
"u  c #314169",
"i  c #324371",
"p  c #334473",
"a  c #334575",
"s  c #334676",
"d  c #354675",
"f  c #344677",
"g  c #344779",
"h  c #354879",
"j  c #34487B",
"k  c #35497C",
"l  c #35497E",
"z  c #354A7F",
"x  c #384A7A",
"c  c #3B4D7C",
"v  c gray25",
"b  c gray26",
"n  c gray27",
"m  c gray28",
"M  c #484747",
"N  c #494949",
"B  c #4C4C4C",
"V  c #4E4E4E",
"C  c #515151",
"Z  c #525151",
"A  c #535353",
"S  c #555555",
"D  c #585858",
"F  c #5A5A5A",
"G  c #5C5B5C",
"H  c #5D5D5D",
"J  c #5E5C5D",
"K  c #5F5F5F",
"L  c gray38",
"P  c #626262",
"I  c #646464",
"U  c #6F6E6E",
"Y  c #767678",
"T  c #354A80",
"R  c #364B81",
"E  c #364B82",
"W  c #364C83",
"Q  c #364C84",
"!  c #374D87",
"~  c #3A4D80",
"^  c #374E89",
"/  c #374F8B",
"(  c #3E5184",
")  c #3E5389",
"_  c #38508D",
"`  c #38518F",
"'  c #385291",
"]  c #395393",
"[  c #3F5690",
"{  c #395394",
"}  c #395495",
"|  c #3B5594",
" . c #3C5696",
".. c #465B8F",
"X. c #4C639A",
"o. c #647091",
"O. c #4E67A6",
"+. c #596DA1",
"@. c #506BAB",
"#. c #556EAA",
"$. c #516BAD",
"%. c #536DAE",
"&. c #546FAF",
"*. c #5770AF",
"=. c #5872B0",
"-. c #5A74B1",
";. c #5C75B2",
":. c #5E76B3",
">. c #6078B4",
",. c #617AB5",
"<. c #647BB6",
"1. c #657DB6",
"2. c #677FB7",
"3. c #687FB8",
"4. c #76809C",
"5. c #7986A7",
"6. c #6980B8",
"7. c #6B81B9",
"8. c #6D83BA",
"9. c #6E85BB",
"0. c #7186BC",
"q. c #7288BD",
"w. c #7489BD",
"e. c #768BBE",
"r. c #788CBF",
"t. c #7A8EC0",
"y. c #7B90C1",
"u. c #7E92C2",
"i. c gray51",
"p. c gray55",
"a. c #9A999A",
"s. c #8C93A9",
"d. c #98A1B9",
"f. c #A6A6A8",
"g. c #A1A6B4",
"h. c #AEB2BC",
"j. c #B1B0B0",
"k. c #B4B3B3",
"l. c #B6B5B6",
"z. c #B7B7BA",
"x. c #B9B8B8",
"c. c #BAB8B9",
"v. c #BBBABA",
"b. c #BCBBBB",
"n. c #BDBBBC",
"m. c #BFBEBF",
"M. c #C0BFBF",
"N. c #8194C3",
"B. c #8497C5",
"V. c #8899C5",
"C. c #899BC7",
"Z. c #90A1CB",
"A. c #9CAACB",
"S. c #ABB7D5",
"D. c #BCC7E0",
"F. c #C1C0C0",
"G. c #C3C1C2",
"H. c #C3C2C2",
"J. c #C4C3C3",
"K. c #C4C3C4",
"L. c #C3C4C7",
"P. c #C6C5C5",
"I. c #C7C6C7",
"U. c #C8C7C7",
"Y. c #C9C8C8",
"T. c #CAC9C9",
"R. c #CBCACB",
"E. c #CECDCD",
"W. c #D0CFCF",
"Q. c #C8CAD2",
"!. c #CFD0D4",
"~. c #D1D0D1",
"^. c #D3D2D2",
"/. c #D5D4D4",
"(. c gray84",
"). c #D8D7D8",
"_. c #DBDADA",
"`. c #DDDDDD",
"'. c #C9D1E6",
"]. c #D8DEEC",
"[. c #E0DFE0",
"{. c #E2E1E1",
"}. c gray89",
"|. c #E6E5E6",
" X c #E8E7E7",
".X c #E9ECF4",
"XX c gray94",
"oX c #F3F3F3",
"OX c #F5F7FA",
"+X c #F7F8FB",
"@X c #FBFBFB",
"#X c #FDFDFD",
"$X c #FDFDFE",
"%X c gray100",
"&X c None",
/* pixels */
"&X&X&X&X&X&X&X&X&X&X&X&X&X&X&X&X&X&X&X&X&X&X&X&X&X&X&X&X&X&X&X&X&X&X&X&X&X&X&X&X&X&X&X&X&X&X&X&X&X&X&X&X&X&X&X&X&X&X&X&X&X&X&X&X",
"&X&X5.C.C.C.C.C.S.%X%X%X%X%X%X%X%X%X%X%XM.I I I I I I I I I I I I I I I I I I I I I I I I I I I I I I I I I I I I I I I I I &X&X",
"&Xo.B.C.B.C.B.V.B..X%X%X%X%X%X%X%X%X%X%X%Xi.I I K I I I I K I K I I I K K I I I I I K K I I I K K I I I K I I K I I I K I I K &X",
"&XB.V.B.V.B.V.B.C.A.%X%X%X%X%X%X%X%X%X%X%XW.G K G I G G K K K K K K K K K K K K K K K K K K K K K K K K K K K K K K K K G K K &X",
"&XC.B.B.y.B.B.B.B.B.'.%X%X%X%X%X%X%X%X%X%X%Xp.G G K G K G K K G K K K K G G G K K G K K K K K G G G K K G K K G G K K G G G G &X",
"&XV.B.B.B.B.r.B.y.B.Z.OX%X%X%X%X%X%X%X%X%X%X}.G G G G G D D D D D D D G G G G D D D D D D D D D G G D G D D D D D G D G G G G &X",
"&XB.y.y.r.B.r.B.y.B.y.D.%X%X%X%X%X%X%X%X%X%X%Xf.D D D D D D D D D D D D D D D D D D D D D D D D D D D D D D D D D D G D D G D &X",
"&XB.y.y.y.B.y.y.B.y.B.y.OX%X%X%X%X%X%X%X%X%X%XoXI C C D D C D D C D C D C D C D D D C D C D D D C D D C D C D D C D C D C C D &X",
"&Xy.t.t.y.y.y.t.r.r.y.y.A.%X%X%X%X%X%X%X%X%X%X%Xj.D C C D C C C C C D C C C C C C D C C C C C C C C C C D C C C C D C C C C D &X",
"&Xt.t.t.t.t.t.t.y.r.r.r.r.].%X%X%X%X%X%X%X%X%X%X%XU C C C C C C C C C C C C C C C C C C C C C C C C C C C C C C C C C C C C C &X",
"&Xt.e.t.t.t.t.e.r.r.r.r.e.Z.%X%X%X%X%X%X%X%X%X%X%XE.V V V V V V B C C C C C B C C C C C C C B C C C C B C B B B C C B C C B C &X",
"&Xe.e.e.e.e.e.e.r.r.e.e.e.e.'.%X%X%X%X%X%X%X%X%X%X%Xi.B B B B B N B B N B B N B N B B N B B N B B B B B B B B B N B B B B B B &X",
"&X0.e.e.e.0.e.0.e.e.e.e.e.0.y.+X%X%X%X%X%X%X%X%X%X%X}.B B B m m N N N N N N N N N N N N N N N N B B B N B B N N N N N B B B b &X",
"&Xe.0.9.e.0.9.e.9.0.0.0.0.e.e.S.%X%X%X%X%X%X%X%X%X%X%Xa.m m m m N N b N N N b N N N N N b N b N N b B b b B b B b B b B b N B &X",
"&X0.0.0.0.0.0.0.0.0.0.0.0.9.9.e..X%X%X%X%X%X%X%X%X%X%XoXC b m b b N N N v N N N v N b N b N N N B b b b N b b b b B b b N b b &X",
"&X9.9.9.9.9.9.9.9.9.9.9.9.9.9.9.A.%X%X%X%X%X%X%X%X%X%X%Xj.b b b v v v v v v v v v v v b v b v v b b b b b b b b b b b b b b b &X",
"&X9.9.3.9.0.9.9.9.9.3.9.3.0.8.8.8.].%X%X%X%X%X%X%X%X%X%X%XG b b t t t t t t t t t t t t t t t t v b b v b b v b b v b b v b b &X",
"&X9.9.3.3.3.3.3.3.9.3.9.3.3.7.7.7.B.%X%X%X%X%X%X%X%X%X%X%XI.w w t w t t t w t t t w t t t w t t w w w w w w w w w w w w w w w &X",
"&X9.2.2.3.3.3.3.2.3.2.9.3.3.7.3.7.3.D.%X%X%X%X%X%X%X%X%X%X%XU w w w t w w w w w w w t w w w t w w w w w w w w w w w w w w w w &X",
"&X2.2.2.3.3.3.3.2.2.2.9.3.3.3.3.3.3.e.oX%X%X%X%X%X%X%X%X%X%X`.w 0 0 w 0 0 0 0 0 0 0 w 0 0 0 0 0 q q q w q 0 0 0 w q q q q q w &X",
"&X2.2.2.3.>.2.2.9.,.,.,.6.,.6.6.2.2.2.S.%X%X%X%X%X%X%X%X%X%X%Xp.0 0 0 0 0 0 0 0 0 0 0 0 0 0 0 0 0 0 0 0 0 0 0 0 0 0 0 0 0 0 0 &X",
"&X>.>.>.2.2.2.>.,.,.,.3.,.:.2.,.>.>.2.2..X%X%X%X%X%X%X%X%X%X%XXXb 0 0 0 0 0 0 0 0 0 0 0 0 0 0 6 0 0 0 0 6 0 0 0 0 6 0 0 0 0 0 &X",
"&X2.>.2.2.>.>.>.,.,.:.:.2.:.,.,.>.2.2.;.Z.%X%X%X%X%X%X%X%X%X%X%Xf.6 6 6 6 6 6 0 6 6 6 6 0 6 6 6 6 6 0 6 6 6 0 6 6 6 6 0 6 0 6 &X",
"&X;.>.>.;.>.>.>.,.,.:.2.:.:.:.:.;.;.;.2.;.].%X%X%X%X%X%X%X%X%X%X%XA 6 6 6 6 6 6 6 6 6 6 6 6 6 6 6 6 6 6 6 6 6 6 6 6 6 6 6 6 6 &X",
"&X;.;.>.;.;.;.;.>.;.>.;.:.:.:.:.;.;.>.;.:.y.%X%X%X%X%X%X%X%X%X%X%Xm.6 3 6 6 3 6 6 6 3 6 3 6 5 5 6 3 3 6 6 6 6 6 6 6 6 1 6 6 1 &X",
"&X;.;.;.;.;.;.;.;.;.;.;.;.:.;.;.;.;.;.;.:.:.D.%X%X%X%X%X%X%X%X%X%X%XI 3 3 3 3 3 3 3 3 6 3 3 3 3 3 6 3 3 3 3 3 3 6 1 6 1 1 6 6 &X",
"&X;.;.;.;.;.=.;.;.;.;.;.:.;.;.&.&.;.;.;.:.:.6.+X%X%X%X%X%X%X%X%X%X%X).6 3 3 3 3 3 3 3 3 3 3 3 3 3 3 3 3 3 3 3 3 1 1 1 6 6 1 1 &X",
"&Xc #.*.=.=.*.;.#.=.=.=.&.;.&.&.;.;.#.;.&.&.&.A.%X%X%X%X%X%X%X%X%X%X%Xi.1 1 1 1 1 1 1 1 3 1 1 1 1 1 1 1 1 1 1 1 1 1 1 1 1 1 = &X",
"&Xi c X.#.*.*.*.*.*.*.*.*.*.*.*.*.*.*.*.*.*.&.;.].%X%X%X%X%X%X%X%X%X%XXX0 1 > 1 > 1 > 1 > 1 1 > 1 > 1 > > 1 1 > 1 > 1 1 = = $ &X",
"&Xi i i i ) O.*.*.*.*.*.$.*.*.*.*.*.$.*.$.*.&.$.V.%X%X%X%X%X%X%X%X%X%X%Xa.: > > > > > > > > > > > > > > > > > > : - - $ $ $ $ &X",
"&Xi i i i i i h E .. .@.$.*.$.#.@.$.*.$.$.$.&.*.@.].%X%X%X%X%X%X%X%X%X%X+Xt : : > : : : > : : : : : > : - - = * $ $ $ $ $ $ $ &X",
"&Xi i i i g i i i i i i j ~ ) | X.X.O.O.$.$.$.$.$.9.%X%X%X%X%X%X%X%X%X%X%Xc.: - - - : - - - - = = * * $ # # $ $ $ $ $ $ $ $ $ &X",
"&Xi i g i i i i i j i i i i i j i i i i i i g g g ~ s.m.M.U.m.U.I.m.I.I.m.m.w & $ $ $ o $ $ $ $ o $ $ o & + + & + + + + & + + &X",
"&Xj i i g g g i i i j i j j i i g g g i g g i i g h c f.j.j.j.j.j.j.j.j.j.j.a.& $ $ $ $ $ $ $ $ $ $ $ $ + & & + + & & + + & & &X",
"&Xj i j g i i g j d i j d d d d g i g g g i g g i g i Y j.j.j.l.j.j.c.j.j.l.j.C $ o $ $ o $ $ o $ $ $ $ + + + & & + + & $ $ & &X",
"&Xg j i g j c i i j g j i j d d g h i g g g i g g g h h g.c.l.l.c.j.c.j.c.j.c.f.= $ $ $ $ $ $ $ $ $ $ o & + & & + & & + # $ & &X",
"&Xg i c j j i j j j i j d j d j g g i h g g g g i g g g ..l.l.l.l.l.l.c.c.j.c.z.i.J J J J J J J G G J J J J J J J J J J G J J &X",
"&Xj g g i j j j j j j j j j j d g g g h g g g g g g g g g s.c.c.x.x.c.c.c.c.c.l.x.x.x.x.x.x.x.x.x.l.x.l.x.x.l.l.x.x.x.x.l.l.c.&X",
"&Xj g g j j j j j j i j j j j j g j g g g g g g g g g g g ..c.c.c.c.c.c.c.c.c.c.c.c.c.c.c.c.c.c.c.l.c.l.M.M.l.l.c.M.c.c.c.l.c.&X",
"&Xj j g j j j j j j j j j j j j j j j j g g Q g g Q g g g g s.M.c.m.c.c.I.c.M.c.M.c.M.M.c.M.M.c.M.M.M.M.M.l.M.M.M.c.c.M.M.M.M.&X",
"&Xj j j j j j j c j j j j j j j ~ g g g j E g j h Q g g h Q c c.m.m.c.I.c.F.M.M.c.F.c.U U U U U U U U U U U U U U U U U U U U &X",
"&XE E j E j E ~ j j E j j E E j Q E Q g E g j E g Q h Q Q g ..o.F.F.m.m.F.F.F.F.F.F.F.Z o $ o $ o $ o $ $ o o $ o o $ o o o $ &X",
"&Xj E E E j j E j Q j Q Q E j j g g E E E j E E Q g h Q g g Q Q j.F.F.I.F.F.I.F.F.F.I.k.= $ o o o $ o o o $ o o $ o o $ o $ o &X",
"&XE E j E E j E Q j Q j E j Q E E Q Q g E E E j g Q Q h Q Q g Q o.I.F.I.I.U.F.F.I.I.I.F.U : : : ; : ; ; ; ; ; ; ; ; ; ; ; ; ; &X",
"&Xj E E E E E j Q z z z E E E E E E E E E E j E Q Q h Q h Q g Q j g.U.L.U.L.U.U.I.F.U.I.I.I.I.I.U.U.I.F.U.I.I.F.I.I.I.I.U.U.U.&X",
"&XE E E E E E E z Q Q Q E E E E E E E E E E E E h Q Q Q Q Q Q Q E ..L.L.U.U.U.U.U.U.U.U.U.I.U.U.U.U.U.U.U.U.U.U.I.U.U.U.U.U.U.&X",
"&XQ E E E E E E Q z Q Q Q Q Q Q E E E / E E E E Q Q Q Q Q Q Q Q E Q s.E.U.U.U.U.U.U.E.U.U.U.U.U.W.U.U.U.U.E.U.U.U.U.U.U.E.U.E.&X",
"&XQ ` E E E / E Q Q Q Q Q Q Q Q E E E E E / E E Q Q Q Q Q Q Q Q E Q ..L.U.E.E.E.E.U.E.U.U.E.E.I.F.F.F.U.F.F.I.F.I.F.M.I.F.M.I.&X",
"&XE E Q E ^ E ~ / E Q ! Q ! Q ! E / E / E / E / E ^ E ^ Q ! Q ! Q ! Q 5.E.E.W.Q.W.W.W.W.W.W.W.D o o o o o o o o o o o o o o o &X",
"&X` / ) ^ E ^ ^ / / ! Q ! ! ! ! E / / E ^ E / E / E / ~ ^ Q ! ! ! ! ! ^ m.W.W.W.W.W.W.W.W.W.W.M.= o o o o o o o o o o o o o o &X",
"&X/ E / E / E / Q Q / ^ ! ^ ! ^ E / E / ~ / / / Q / / / ^ ^ Q / ! ^ ! ^ o.W.W./.W.W.W.W.W.W.W.W.U o o o o o o o o o o o o o o &X",
"&XE / / / / / / / / / Q ^ ^ ^ ^ / / / / / / / E / / E / ^ ^ ^ / ^ ^ ^ ^ ^ h./.W.^.W.^.^.^.W.^.W.W.a.a.a.a.a.a.a.a.a.a.a.a.a.a.&X",
"&X/ / / / / / / / / / / ^ _ ^ ^ / / / E / / ` E / / _ / / / / / ^ ^ _ ^ / X.W./.(.^.(.^.(.(.(.(./././././././././././././././.&X",
"&X/ / / / / / / / / / / ^ ^ / _ / / / / / / / ` / / ^ _ / / / / ^ _ _ ^ / / d./.(.(.(.).(.(.(.(.(./.).)./.).(.(./.)././././.(.&X",
"&X` / / / / / ` / _ / _ / _ / _ / / / / / ` E ` / _ ^ _ / _ / _ _ _ ^ _ / ` ..W.).).).).(.).).(.).).).).).).).).`./.).).).).`.&X",
"&X) / ` / ` ` / _ _ _ _ _ _ _ _ ` / ` ` / ` ` ` ^ ^ _ _ _ _ _ _ _ _ _ _ ` ` ` t._._._._.(.`.`.).).`.).p.M M M M b B M M M B b &X",
"&X` ` / ` ` ` / _ _ ` ` ` ` ` ` ` ` ` / ` ` ` ` ` ` ` / ` ` ` / _ _ ` ` ` ` ` | Q.`.`.`.`.`.`.`.).`.`.U.o o o o o o o o o o o &X",
"&X` ` ` ` ` ` / _ _ ` ` ` ` ` ` ` ` ` ` ` ` ` ` ` ` ` ` ` ` ` / _ _ ` ` ` ` ` ` 2.`.`.`.`.`.[.`.[.`.[.`.Y o o o o o o o o o o &X",
"&X| ` { { { ` { { { ` ` { ` ` ` { ` ` { { ` { ` { ` ` { { { ` { { { ` { ` ` ` ` ) I.[.[.`.[.[.[.[.[.[.[.`.1 o o o o o o o o o &X",
"&X` { ` { ` { { { _  .` } ` { { { ` { { { ` { ` { ` { ` { ` { { { _  .` } `  .` | +.[.[.}.[.}.[.}.[.[.}.}.a.o o o o o o o o o &X",
"&X| | | { { { { { { { { { ` } } { { { { { { { { { { { { { { { { { { { { } { ` } { { d.}.}.}.}.}.}.}.}.}.}.}.w o o o o o o o o &X",
"&Xu { { { { { { { { { { { { { { { { { { { { { { { { { { { { { { { { { } { { { } { { O.]. X}. X X X}.}. X}. XI.o o o o o o o $ &X",
"&X&Xy | |  . .| { {  .} }  .} } | | | | { { | | { | { { |  . .| { {  .} }  .} } | | | C. X X X X X X X X X X}.G o o o o o = &X&X",
"&X&X&X&X&X&X&X&X&X&X&X&X&X&X&X&X&X&X&X&X&X&X&X&X&X&X&X&X&X&X&X&X&X&X&X&X&X&X&X&X&X&X&X&X&X&X&X&X&X&X&X&X&X&X&X&X&X&X&X&X&X&X&X&X"
};
