/* XPM */
static const char *SearchBarRight[] = {
/* columns rows colors chars-per-pixel */
"39 24 97 2 ",
"   c gray23",
".  c gray22",
"X  c #3F3F3F",
"o  c gray25",
"O  c #070707",
"+  c #1E1E1E",
"@  c #373737",
"#  c #414141",
"$  c #161616",
"%  c gray12",
"&  c #232323",
"*  c #222222",
"=  c gray13",
"-  c gray30",
";  c #060606",
":  c #343434",
">  c gray26",
",  c #202020",
"<  c #131313",
"1  c gray8",
"2  c gray7",
"3  c gray3",
"4  c gray9",
"5  c #4E4E4E",
"6  c gray14",
"7  c #252525",
"8  c #151515",
"9  c #111111",
"0  c gray21",
"q  c #090909",
"w  c gray10",
"e  c #101010",
"r  c #1D1D1D",
"t  c #0C0C0C",
"y  c gray5",
"u  c gray4",
"i  c #353535",
"p  c #535353",
"a  c gray6",
"s  c gray15",
"d  c #0B0B0B",
"f  c #272727",
"g  c #0E0E0E",
"h  c #1B1B1B",
"j  c gray31",
"k  c #181818",
"l  c #505050",
"z  c #555555",
"x  c gray11",
"c  c #282828",
"v  c #515151",
"b  c #191919",
"n  c #434343",
"m  c gray16",
"M  c gray32",
"N  c gray33",
"B  c #C6C6C6",
"V  c #565656",
"C  c gray97",
"Z  c #606060",
"A  c #FEFEFE",
"S  c #7C7C7C",
"D  c gray99",
"F  c gray51",
"G  c #9A9A9A",
"H  c gray72",
"J  c gray98",
"K  c #D5D5D5",
"L  c gray34",
"P  c #B9B9B9",
"I  c gray44",
"U  c #DFDFDF",
"Y  c #898989",
"T  c #7B7B7B",
"R  c gray93",
"E  c gray74",
"W  c #D2D2D2",
"Q  c #E4E4E4",
"!  c #DDDDDD",
"~  c gray58",
"^  c gray75",
"/  c #444444",
"(  c #2A2A2A",
")  c #E6E6E6",
"_  c #F4F4F4",
"`  c #979797",
"'  c gray29",
"]  c #CECECE",
"[  c gray60",
"{  c #EEEEEE",
"}  c gray24",
"|  c #3E3E3E",
" . c #3A3A3A",
".. c #3C3C3C",
"X. c #7E7E7E",
"o. c #393939",
"O. c gray100",
/* pixels */
"- - - - - - - - 5 5 5 5 5 5 5 j j j l l l l v v v M M p p p p N N z z z V V L ",
"o.o.o.o.o.o.o.o. . . . .            ....} } | | | | | X X o o # # > > > n n / ",
". . . . . . . . o.o.o.o. . . . . . .    ....} } } } } | | X X o o # # # > > n ",
"@ @ @ @ @ @ @ @ . . . . o.o.o.o.o.o. . .    ..........} } | | X X o o o # # > ",
"X.X.X.X.X.X.X.X.X.X.X.X.X.X.X.X.X.X.X.X.X.X.S I Z ' ..} } | | X X o o o # # > ",
"O.O.O.O.O.O.O.O.O.O.O.O.O.O.O.O.O.O.O.O.O.O.C Q ^ ` Z ....} } | | X X X o o # ",
"O.O.O.O.O.O.O.O.O.O.O.O.O.O.O.O.O.O.O.O.O.O.O.O.A ) H F | ....} } | | X X X o ",
"O.O.O.O.O.O.O.O.O.O.O.O.O.O.O.O.O.O.O.O.O.O.O.O.O.O._ B X. . .    ....} } } | ",
"O.O.O.O.O.O.O.O.O.O.O.O.O.O.O.O.O.O.O.O.O.O.O.O.O.O.O.R B j . o.o. . .  ......",
"O.O.O.O.O.O.O.O.O.O.O.O.O.O.O.O.O.O.O.O.O.O.O.O.O.O.O.O.! Y @ . . o.o. .      ",
"O.O.O.O.O.O.O.O.O.O.O.O.O.O.O.O.O.O.O.O.O.O.O.O.O.O.O.O.{ P & 6 6 7 7 s f f c ",
"O.O.O.O.O.O.O.O.O.O.O.O.O.O.O.O.O.O.O.O.O.O.O.O.O.O.O.O.J K = * * & & 6 7 7 s ",
"O.O.O.O.O.O.O.O.O.O.O.O.O.O.O.O.O.O.O.O.O.O.O.O.O.O.O.O.O.U % , , = = * & & 6 ",
"O.O.O.O.O.O.O.O.O.O.O.O.O.O.O.O.O.O.O.O.O.O.O.O.O.O.O.O.O.] r + + % % , = = * ",
"O.O.O.O.O.O.O.O.O.O.O.O.O.O.O.O.O.O.O.O.O.O.O.O.O.O.O.O.O.[ h x x r r + % % , ",
"O.O.O.O.O.O.O.O.O.O.O.O.O.O.O.O.O.O.O.O.O.O.O.O.O.O.O.O.D > b w w h h x r r + ",
"O.O.O.O.O.O.O.O.O.O.O.O.O.O.O.O.O.O.O.O.O.O.O.O.O.O.O.O.G 4 4 4 4 k k b w w h ",
"O.O.O.O.O.O.O.O.O.O.O.O.O.O.O.O.O.O.O.O.O.O.O.O.O.O.O.E w 8 8 $ $ $ $ 4 k k b ",
"O.O.O.O.O.O.O.O.O.O.O.O.O.O.O.O.O.O.O.O.O.O.O.O.O.C T 2 2 < < 1 1 8 8 $ $ $ 4 ",
"O.O.O.O.O.O.O.O.O.O.O.O.O.O.O.O.O.O.O.O.O.O.O.W ~ i e 9 9 2 2 < < 1 1 8 $ $ 4 ",
"O O O O O O O O 3 3 3 3 q q q u u u d d t t y y y g g a a e e 9 9 2 2 < 1 1 8 ",
"; ; ; ; ; ; ; ; O O O O 3 3 3 q q q u u d d t t t y y g g a a e e 9 9 2 < < 1 ",
"+ + + + + + + + % % % % , , , = = = * * * * & & & 6 6 7 7 s s f f c c m m m ( ",
": : : : : : : : i i i i 0 0 0 0 0 0 @ @ . . o.o.o. . . . .    ....} } | | | X "
};
