/* XPM */
static const char *SearchBarForward[] = {
/* columns rows colors chars-per-pixel */
"95 24 256 2 ",
"   c #156B9E",
".  c gray25",
"X  c #081118",
"o  c gray16",
"O  c gray10",
"+  c #0E2C40",
"@  c #151515",
"#  c #444444",
"$  c #044A75",
"%  c #0B324B",
"&  c #276B94",
"*  c gray9",
"=  c #156EA2",
"-  c #225C80",
";  c #0F2838",
":  c #4D6677",
">  c #131313",
",  c #265A7B",
"<  c #34424D",
"1  c #4E4E4E",
"2  c #05649F",
"3  c gray26",
"4  c #337EAB",
"5  c #111111",
"6  c #3E85AE",
"7  c #060606",
"8  c #133044",
"9  c #0A4B74",
"0  c #0B5582",
"q  c #114E74",
"w  c #125E8C",
"e  c #2D729C",
"r  c #0E3A55",
"t  c #264458",
"y  c #264860",
"u  c #0A3D5D",
"i  c #29516A",
"p  c #333D45",
"a  c #263E50",
"s  c #0F476A",
"d  c #8D8D8D",
"f  c #0A5E91",
"g  c #2A6E97",
"h  c #295E7F",
"j  c #054E7A",
"k  c #27516C",
"l  c gray13",
"z  c #065586",
"x  c #9EB4C3",
"c  c #11354E",
"v  c #1A5B83",
"b  c gray15",
"n  c #222222",
"m  c #2A5978",
"M  c #090909",
"N  c #0F1010",
"B  c #22455D",
"V  c #152D3E",
"C  c #1971A6",
"Z  c #0E0E0E",
"A  c #2C2C2C",
"S  c #26658C",
"D  c #14415E",
"F  c #2B688D",
"G  c #758C9C",
"H  c #383D40",
"J  c #354652",
"K  c #364D5C",
"L  c #096196",
"P  c #052336",
"I  c #13222D",
"U  c #0C0C0C",
"Y  c #0F537D",
"T  c #0A2132",
"R  c #0B4366",
"E  c #051622",
"W  c #38454E",
"Q  c #0C3049",
"!  c #143851",
"~  c #0C1D2A",
"^  c #052841",
"/  c #565656",
"(  c #113851",
")  c #435A69",
"_  c #535353",
"`  c gray32",
"'  c #505050",
"]  c #264153",
"[  c #0E2F45",
"{  c #175981",
"}  c #1D6D9C",
"|  c #0F2B3D",
" . c #142A39",
".. c #295671",
"X. c #12537A",
"o. c #162631",
"O. c #122838",
"+. c #092D45",
"@. c #093553",
"#. c #15547B",
"$. c #314756",
"%. c #313537",
"&. c #112736",
"*. c #070707",
"=. c #37424A",
"-. c #294F67",
";. c #363A3D",
":. c #296F9A",
">. c #154765",
",. c #0B5989",
"<. c #193D55",
"1. c #114362",
"2. c #0A4162",
"3. c #1A2A36",
"4. c #3E87B2",
"5. c #0D6295",
"6. c #0F344D",
"7. c #2A77A5",
"8. c #070D11",
"9. c #26465C",
"0. c #062B44",
"q. c #0F3147",
"w. c #163549",
"e. c #0B354F",
"r. c #0F334B",
"t. c #1B405A",
"y. c #373839",
"u. c #122B3C",
"i. c #080B0D",
"p. c gray22",
"a. c gray21",
"s. c #353535",
"d. c #1D1D1D",
"f. c #14374F",
"g. c gray14",
"h. c #313131",
"j. c #384650",
"k. c #061824",
"l. c gray19",
"z. c #2B678B",
"x. c #1D6B9A",
"c. c #3E83AC",
"v. c #044771",
"b. c #2A5977",
"n. c #294E65",
"m. c #373737",
"M. c #162C3B",
"N. c gray24",
"B. c #3C3C3C",
"V. c #D2D2D2",
"C. c #A8BECD",
"Z. c gray23",
"A. c #3E3E3E",
"S. c #252525",
"D. c #3F3F3F",
"F. c gray11",
"G. c #3A3A3A",
"H. c gray12",
"J. c #323232",
"K. c gray61",
"L. c #3E8BB8",
"P. c #1D75A9",
"I. c #0B334C",
"U. c #A8BFCE",
"Y. c #286488",
"T. c #153C54",
"R. c #38393A",
"E. c #1A73A8",
"W. c #0A3F60",
"Q. c #27475C",
"!. c #2A5C7B",
"~. c gray29",
"^. c #10293B",
"/. c gray28",
"(. c #353536",
"). c #16567D",
"_. c #5B5B5B",
"`. c #363738",
"'. c #1D6FA1",
"]. c #224359",
"[. c #2E80B0",
"{. c #045C91",
"}. c #7B92A2",
"|. c #244760",
" X c #626262",
".X c #959595",
"XX c #2B78A5",
"oX c #4D555B",
"OX c #183346",
"+X c #082E49",
"@X c #072030",
"#X c #131C22",
"$X c #18699A",
"%X c #192731",
"&X c #2E4554",
"*X c #18628F",
"=X c #275978",
"-X c #2B7EB0",
";X c #3E88B4",
":X c #09486E",
">X c #274C63",
",X c #2B678C",
"<X c #2A658A",
"1X c #27485D",
"2X c #345870",
"3X c #242E36",
"4X c #373C3F",
"5X c #112838",
"6X c #156597",
"7X c #061C2C",
"8X c #186493",
"9X c gray66",
"0X c #B2B2B2",
"qX c #3885B2",
"wX c #103D5B",
"eX c #384046",
"rX c #7C7C7C",
"tX c #0A293D",
"yX c #86A0B1",
"uX c #0B3A58",
"iX c #385568",
"pX c #0B3C5B",
"aX c #0E3D5A",
"sX c #257BAD",
"dX c #164867",
"fX c #1B4764",
"gX c #0F679B",
"hX c #3582AE",
"jX c #28485E",
"kX c #31404A",
"lX c #1D70A1",
"zX c #2B6A90",
"xX c #2B6D94",
"cX c #394F5E",
"vX c #264D67",
"bX c #274558",
"nX c #2A6286",
"mX c #337AA5",
"MX c #12547D",
"NX c #657B8A",
"BX c #1D72A6",
"VX c #0E1B23",
"CX c #0E4364",
"ZX c #114465",
"AX c #0D6092",
"SX c #186798",
"DX c #1D2226",
"FX c #1B272F",
"GX c #30383D",
"HX c #111619",
"JX c gray62",
"KX c #343434",
"LX c #393939",
"PX c #1E1E1E",
"IX c gray30",
"UX c gray20",
/* pixels */
"1 / / / / / _ _ _ ` ` ' ' 1 1 1 1 1 IXIXIXIXIXIXIXIXIXIXIXIXIXIXIXIXIXIXIXIXIXIXIXIXIXIXIXIXIXIXIXIXIXIXIXIXIXIXIXIXIXIXIXIXIXIXIXIXIXIXIXIXIXIXIXIXIXIXIXIXIXIXIXIXIXIXIXIXIXIXIXIXIXIXIXIXIX",
"A.# # # 3 3 . . D.A.A.N.B.Z.Z.Z.G.G.LXLXLXLXLXLXLXLXLXLXLXLXLXLXLXLXLXLXLXLXLXLXLXLXLXLXLXLXLXLXLXLXLXLXLXLXLXLXLXLXLXLXLXLXLXLXLXLXLXLXLXLXLXLXLXLXLXLXLXLXLXLXLXLXLXLXLXLXLXLXLXLXLXLXLXLXLX",
"N.# # 3 . . . D.A.N.N.B.Z.G.G.G.LXLXp.p.p.p.p.p.p.p.p.p.p.p.p.p.p.p.p.p.p.p.p.p.p.p.p.p.p.p.R.H eXW j.j.j.j.j.j.j.j.j.j.j.j.j.j.j.j.j.j.j.j.j.j.j.j.j.j.j.j.j.j.j.j.W =.eX4XR.p.p.p.p.p.p.p.p.",
"N.# 3 . . . D.A.N.B.B.m.A n PXPXd.d.d.d.d.d.d.d.d.d.d.d.d.d.d.d.d.d.d.d.d.d.d.d.d.d.d.d.d.d.DXOXf.f.f.f.f.f.f.f.f.f.f.f.f.f.f.f.f.f.f.f.f.f.f.f.f.f.f.f.f.f.f.f.f.f.f.<.].$.eX;.y.m.m.m.m.m.m.",
"N.# 3 . . . D.A.N.B.l.l m.# 1 1 1 1 IXIXIXIXIXIXIXIXIXIXIXIXIXIXIXIXIXIXIXIXIXIXIXIXIXIXIXIXoX2XsXL.L.L.4.6 c.c.c.c.c.c.c.c.c.c.c.c.c.c.c.c.c.c.c.c.c.c.c.c.c.6 6 4.;XmXS D B J 4Xy.m.m.m.m.m.",
"B.3 . . D.D.A.N.Z.b J.~.# B.p.p.m.m.a.a.a.a.a.a.a.a.a.a.a.a.a.a.a.a.a.a.a.a.a.a.a.a.a.a.a.a.=.y E.-XXXe xXF z.z.z.z.z.z.z.z.z.z.z.z.z.z.z.z.z.z.z.z.z.z.z.z.z.,XF zXxXe 4 qX- t.$.4X`.a.a.a.a.",
"Z.. . D.D.A.N.B.A m./.B.p.m.m.m.a.a.s.s.s.s.s.s.s.s.s.s.s.s.s.s.s.s.s.s.s.s.s.s.s.s.s.s.s.s.< |.E.7.g <Xh !.b.b.b.b.b.b.b.b.b.b.b.b.b.b.b.b.b.b.b.b.b.b.b.b.m m m !.h nXzXe hX& t.J ;.(.s.s.s.",
"LXD.A.N.N.B.Z.s.g.# p.m.a.s.s.s.KXKXUXUXUXUXUXUXUXUXUXUXUXUXUXUXUXUXUXUXUXUXUXUXUXUXUXUXUXUX< B C :.Y.!...i n.n.n.n.n.n.n.n.n.n.n.n.n.n.n.n.n.n.n.n.n.n.n.n.n.-.-.i k ..!.Y.g 4 { y p KXUXUXUX",
"p.N.B.B.Z.G.LXA N.p.a.s.KXUXUXUXJ.J.h.h.h.h.h.h.h.h.h.h.rXK.h.h.h.h.h.h.h.h.h.h.h.h.h.h.h.h.kXB   & h k >XQ.bXbXbXbXbXbXbXbXbXbXbX: yXiXbXbXbXbXbXbXbXbXbXbXbXbXbXQ.1X>Xk =XY.:.[.fX&X%.h.h.h.",
"m.B.Z.Z.G.LXp.o Z.a.s.KXUXJ.J.J.h.h.l.l.l.l.l.l.l.l._.0XV.JXl.l.l.l.l.l.l.l.l.l.l.l.l.l.l.l.kXB $XS =XvX9.] a a a a a a a a a a a ) U.U.G a a a a a a a a a a a a ] ] t y k , S 7.v jXGXl.l.l.",
"S.o o b b S.g.PXb l l H.H.PXd.d.F.F.O O O O O O b .XV.V.V.K.O O O O O O O O O O O O O O O O 3.c AX).dXT.w.V M.M.M.M.M.M.M.M.M.M.M.cXC.C.C.x : M.M.M.M.M.M.M.M.M.M.M.M.8 w.T.>.#.8X6X! FXO O O ",
"n b b S.g.n n PXl H.PXPXd.F.O O O O O O O O O J.V.V.V.V.V.K.O O O O O O O O O O O O O O O O 3.c AX#.>.T.8 V  . . . . . . . . . . .K C.C.C.C.C.G  . . . . . . . . . . .V 8 ! D q w = c %XO O O ",
"n S.g.n n l l l d.d.F.F.O O O O * * * * * * * @ Z d V.V.V.K.* * * * * * * * * * * * * * * * o.r.f X.ZX( 8 u.O.O.O.O.O.O.O.O.O.O.O.K C.C.C.x ) 7XO.O.O.O.O.O.O.O.O.O.O.u.8 ( D q w = 6.o.* * * ",
"l n n l l H.PXg.O O O O O * * * @ @ @ @ @ @ @ @ @ *.p.9XV.K.@ @ @ @ @ @ @ @ @ @ @ @ @ @ @ @ o.r.f X.1.( 8 ^.&.&.&.&.&.&.&.&.&.&.&.K C.C.NXE T &.&.&.&.&.&.&.&.&.&.5X5Xu.8 ( 1.q w $X6.I @ @ @ ",
"H.l l H.PXd.F.S.> O O * * @ @ @ @ @ > > > > > > > > Z 7  Xd > > > > > > > > > > > > > > > > I Q f Y CXr q.| ; ; ; ; ; ; ; ; ; ; ; K }.V @X; ; ; ; ; ; ; ; ; ; ; ^.^.| + r.r s Y 5.{ r.#X> > > ",
"d.H.PXd.F.O O d.g.> * @ @ @ > > > > 5 5 5 5 5 5 5 5 5 5 M 7 5 5 5 5 5 5 5 5 5 5 5 5 5 5 5 5 I Q L 0 s aX6.[ + + + + + + + + + + + tXP + + + + + + + + + + + + + [ [ q.6.r CXq ,.C wX^.HX5 5 5 ",
"O F.O O O * * * S.* Z > > 5 N N N N Z Z Z Z Z Z Z Z Z Z Z Z Z Z Z Z Z Z Z Z Z Z Z Z Z Z Z Z ~ +.2 ,.9 R uXe.% % % % % % % % % % % % % % % % % % % % % % % % I.I.e.e.r pXR 9 0 gX{ Q VXN Z Z Z ",
"* O O * * @ @ @ @ b O U U Z Z Z Z Z U U U U U U U U U U U U U U U U U U U U U U U U U U U U ~ +.2 L 0 9 R 2.u u u u u u u u u u u u u u u u u u u u u u u u u u W.2.R :Xj z   *X+.T N U U U U ",
"@ * * @ @ @ @ > > 5 F.S.> U 7 7 7 7 7 7 7 7 7 7 7 7 7 7 7 7 7 7 7 7 7 7 7 7 7 7 7 7 7 7 7 7 E ^ 2 2 {.z j $ v.v.v.v.v.v.v.v.v.v.v.v.v.v.v.v.v.v.v.v.v.v.v.v.v.v.$ $ j z 5.C q +XT X i.M M M M ",
"@ * * @ @ @ > > 5 N N > F.n b b S.S.g.g.g.g.g.g.g.g.g.g.g.g.g.g.g.g.g.g.g.g.g.g.g.g.g.g.g.g.3X<.= P.P.P.lX} x.x.x.x.x.x.x.x.x.x.x.x.x.x.x.x.x.x.x.x.x.x.x.x.} } } '.BXSXMX@.0.7XX U M M M M M ",
"@ @ @ @ > > 5 N N Z Z U U M M M M M *.*.*.*.*.*.*.*.*.*.*.*.*.*.*.*.*.*.*.*.*.*.*.*.*.*.*.*.8.P ^ ^ ^ ^ ^ ^ ^ ^ ^ ^ ^ ^ ^ ^ ^ ^ ^ ^ ^ ^ ^ ^ ^ ^ ^ ^ ^ ^ ^ ^ ^ ^ ^ ^ ^ 0.^ @XX i.*.*.*.*.*.*.*.",
"@ @ @ > > 5 N N Z Z U U M M M M *.*.7 7 7 7 7 7 7 7 7 7 7 7 7 7 7 7 7 7 7 7 7 7 7 7 7 7 7 7 *.8.X E k.k.k.k.k.k.k.k.k.k.k.k.k.k.k.k.k.k.k.k.k.k.k.k.k.k.k.k.k.k.k.k.E X X i.*.7 7 7 7 7 7 7 7 ",
"o A o o o o b b S.g.n n n l l l H.H.PXPXPXPXPXPXPXPXPXPXPXPXPXPXPXPXPXPXPXPXPXPXPXPXPXPXPXPXPXPXPXPXPXPXPXPXPXPXPXPXPXPXPXPXPXPXPXPXPXPXPXPXPXPXPXPXPXPXPXPXPXPXPXPXPXPXPXPXPXPXPXPXPXPXPXPXPX",
"G.. D.A.A.N.B.Z.G.G.LXp.m.a.a.a.s.s.KXKXKXKXKXKXKXKXKXKXKXKXKXKXKXKXKXKXKXKXKXKXKXKXKXKXKXKXKXKXKXKXKXKXKXKXKXKXKXKXKXKXKXKXKXKXKXKXKXKXKXKXKXKXKXKXKXKXKXKXKXKXKXKXKXKXKXKXKXKXKXKXKXKXKXKXKX"
};
