/* XPM */
static const char *SearchBarLeft[] = {
/* columns rows colors chars-per-pixel */
"162 24 128 2 ",
"   c #111111",
".  c #151515",
"X  c #313131",
"o  c gray9",
"O  c #1B1B1B",
"+  c #191919",
"@  c gray14",
"#  c gray19",
"$  c gray2",
"%  c #7E7E7E",
"&  c #D2D2D2",
"*  c #090909",
"=  c gray4",
"-  c #161616",
";  c gray12",
":  c gray24",
">  c #3C3C3C",
",  c gray23",
"<  c #3E3E3E",
"1  c #3A3A3A",
"2  c gray8",
"3  c gray7",
"4  c gray11",
"5  c #252525",
"6  c gray10",
"7  c gray25",
"8  c #181818",
"9  c gray13",
"0  c gray5",
"q  c #3F3F3F",
"w  c gray26",
"e  c #323232",
"r  c #202020",
"t  c #101010",
"y  c #222222",
"u  c gray3",
"i  c gray6",
"p  c gray15",
"a  c #232323",
"s  c #414141",
"d  c #272727",
"f  c #0B0B0B",
"g  c #4E4E4E",
"h  c #282828",
"j  c #434343",
"k  c gray61",
"l  c #444444",
"z  c gray31",
"x  c #C6C6C6",
"c  c #7C7C7C",
"v  c gray16",
"b  c gray17",
"n  c #2F2F2F",
"m  c gray27",
"M  c gray32",
"N  c gray33",
"B  c gray93",
"V  c gray57",
"C  c #505050",
"Z  c gray60",
"A  c #2C2C2C",
"S  c gray34",
"D  c gray18",
"F  c #464646",
"G  c #555555",
"H  c #535353",
"J  c gray28",
"K  c #DDDDDD",
"L  c #959595",
"P  c #515151",
"I  c #626262",
"U  c gray72",
"Y  c #5B5B5B",
"T  c #8E8E8E",
"R  c gray89",
"E  c #F4F4F4",
"W  c gray77",
"Q  c gray82",
"!  c gray58",
"~  c #888888",
"^  c #6F6F6F",
"/  c #9A9A9A",
"(  c #4B4B4B",
")  c gray86",
"_  c gray29",
"`  c #A7A7A7",
"'  c #F6F6F6",
"]  c #565656",
"[  c gray1",
"{  c #646464",
"}  c #E4E4E4",
"|  c gray75",
" . c gray59",
".. c gray73",
"X. c #E6E6E6",
"o. c #040404",
"O. c #B2B2B2",
"+. c gray55",
"@. c gray97",
"#. c #B9B9B9",
"$. c gray47",
"%. c gray98",
"&. c gray66",
"*. c #FEFEFE",
"=. c #2A2A2A",
"-. c gray62",
";. c gray36",
":. c #010101",
">. c #5D5D5D",
",. c gray99",
"<. c gray37",
"1. c #808080",
"2. c #0C0C0C",
"3. c #131313",
"4. c #1D1D1D",
"5. c gray21",
"6. c #0E0E0E",
"7. c #353535",
"8. c #373737",
"9. c #343434",
"0. c #070707",
"q. c #060606",
"w. c #393939",
"e. c #1E1E1E",
"r. c gray22",
"t. c gray30",
"y. c gray20",
"u. c gray100",
/* pixels */
"z S S ] G G N H H M P C C z g g g g t.t.t.t.t.t.t.t.t.t.t.t.t.t.t.t.t.t.t.t.t.t.t.t.t.t.t.t.t.t.t.t.t.t.t.t.t.t.t.t.t.t.t.t.t.t.t.t.t.t.t.t.t.t.t.t.t.t.t.t.t.t.t.t.t.t.t.t.t.t.t.t.t.t.t.t.t.t.t.t.t.t.t.t.t.t.t.t.t.t.t.t.t.t.t.t.t.t.t.t.t.t.t.t.t.t.t.t.t.t.t.t.t.t.t.t.t.t.t.t.t.t.t.t.t.t.t.t.t.t.t.t.t.t.t.t.t.t.t.t.t.t.t.t.",
"< m l j w w s 7 q < < : > , , , 1 1 w.w.w.w.w.w.w.w.w.w.w.w.w.w.w.w.w.w.w.w.w.w.w.w.w.w.w.w.w.w.w.w.w.w.w.w.w.w.w.w.w.w.w.w.w.w.w.w.w.w.w.w.w.w.w.w.w.w.w.w.w.w.w.w.w.w.w.w.w.w.w.w.w.w.w.w.w.w.w.w.w.w.w.w.w.w.w.w.w.w.w.w.w.w.w.w.w.w.w.w.w.w.w.w.w.w.w.w.w.w.w.w.w.w.w.w.w.w.w.w.w.w.w.w.w.w.w.w.w.w.w.w.w.w.w.w.w.w.w.w.w.w.w.w.",
": l j w s s 7 q < : : > , 1 1 1 w.w.r.r.r.r.r.r.r.r.r.r.r.r.r.r.r.r.r.r.r.r.r.r.r.r.r.r.r.r.r.r.r.r.r.r.r.r.r.r.r.r.r.r.r.r.r.r.r.r.r.r.r.r.r.r.r.r.r.r.r.r.r.r.r.r.r.r.r.r.r.r.r.r.r.r.r.r.r.r.r.r.r.r.r.r.r.r.r.r.r.r.r.r.r.r.r.r.r.r.r.r.r.r.r.r.r.r.r.r.r.r.r.r.r.r.r.r.r.r.r.r.r.r.r.r.r.r.r.r.r.r.r.r.r.r.r.r.r.r.r.r.r.r.r.r.",
": j w s 7 7 q < : > > 8.b a e.e.4.4.4.4.4.4.4.4.4.4.4.4.4.4.4.4.4.4.4.4.4.4.4.4.4.4.4.4.4.4.4.4.4.4.4.4.4.4.4.4.4.4.4.4.4.4.4.4.4.4.4.4.4.4.4.4.4.4.4.4.4.4.4.4.4.4.4.y v y.8.8.8.8.8.8.8.8.8.8.8.8.8.8.8.8.8.8.8.8.8.8.8.8.8.8.8.8.8.8.8.8.8.8.8.8.8.8.8.8.8.8.8.8.8.8.8.8.8.8.8.8.8.8.8.8.8.8.8.8.8.8.8.8.8.8.8.8.8.8.8.8.8.8.8.8.",
": j w s 7 7 q < : > n 9 8.l z z g g t.t.t.t.t.t.t.t.t.t.t.t.t.t.t.t.t.t.t.t.t.t.t.t.t.t.t.t.t.t.D t.t.t.t.t.t.t.t.t.t.t.t.t.t.t.t.t.t.t.t.t.t.t.t.t.t.t.t.t.t.t.t.t.t.w 7.; b 8.8.8.8.8.8.8.8.8.8.8.8.8.8.8.8.m <.^ c % % % % % % % % % % % % % % % % % % % % % % % % % % % % % % % % % % % % % % % % % % % % % % % % % % % % % % % ",
"> w s 7 q q < : , d e _ j > r.r.8.8.5.5.5.5.5.5.5.5.5.5.5.5.5.5.5.5.5.5.5.5.5.5.5.5.5.5.5.5.5.5.r 5.5.5.5.5.5.5.5.5.5.5.5.5.5.5.5.5.5.5.5.5.5.5.5.5.5.5.5.5.5.5.5.5.5.1 7 F D a 7.5.5.5.5.5.5.5.5.5.5.5.5.5.>. .| } @.u.u.u.u.u.u.u.u.u.u.u.u.u.u.u.u.u.u.u.u.u.u.u.u.u.u.u.u.u.u.u.u.u.u.u.u.u.u.u.u.u.u.u.u.u.u.u.u.u.u.u.u.u.u.u.",
", s 7 q q < : > A 8.J > r.8.8.8.5.5.7.7.7.7.7.7.7.7.7.7.7.7.7.7.7.7.7.7.7.7.7.7.7.7.7.7.7.7.7.7.r 7.7.7.7.7.7.7.7.7.7.7.7.7.7.7.7.7.7.7.7.7.7.7.7.7.7.7.7.7.7.7.7.7.7.7.7.r.w e h 7.7.7.7.7.7.7.7.7.7.7.r.1.U X.*.u.u.u.u.u.u.u.u.u.u.u.u.u.u.u.u.u.u.u.u.u.u.u.u.u.u.u.u.u.u.u.u.u.u.u.u.u.u.u.u.u.u.u.u.u.u.u.u.u.u.u.u.u.u.u.u.u.",
"w.q < : : > , 7.@ l r.8.5.7.7.7.9.9.y.y.y.y.y.y.y.y.y.y.y.y.y.y.y.y.y.y.y.y.y.y.y.y.y.y.y.y.y.y.; y.y.y.y.y.y.y.y.y.y.y.y.y.y.y.y.y.y.y.y.y.y.y.y.y.y.y.y.y.y.y.y.y.y.y.y.y.y.< 9 n y.y.y.y.y.y.y.y.y.y.c x E u.u.u.u.u.u.u.u.u.u.u.u.u.u.u.u.u.u.u.u.u.u.u.u.u.u.u.u.u.u.u.u.u.u.u.u.u.u.u.u.u.u.u.u.u.u.u.u.u.u.u.u.u.u.u.u.u.u.u.",
"r.: > > , 1 w.A : r.5.7.9.y.y.y.e e X X X X X X X X X X c k X X X X X X X X X X X X X X X X X X 4.X X X X X X X X X X X X X X X X ;.` F X X X X X X X X X X X X X X X X X X X e w.d X X X X X X X X X ( x B u.u.u.u.u.u.u.u.u.u.u.u.u.u.u.u.u.u.u.u.u.u.u.u.u.u.u.u.u.u.u.u.u.u.u.u.u.u.u.u.u.u.u.u.u.u.u.u.u.u.u.u.u.u.u.u.u.u.u.u.",
"8.> , , 1 w.r.h , 5.7.9.y.e e e X X # # # # # # # # Y O.& -.# # # # # # # # # # # # # # # # # # 4.# # # # # # # # # # # # # # # # M & & V # # # # # # # # # # # # # # # # # # # 7.5 # # # # # # # # # ~ K u.u.u.u.u.u.u.u.u.u.u.u.u.u.u.u.u.u.u.u.u.u.u.u.u.u.u.u.u.u.u.u.u.u.u.u.u.u.u.u.u.u.u.u.u.u.u.u.u.u.u.u.u.u.u.u.u.u.u.u.u.",
"5 h h d p 5 @ e.p 9 r ; ; e.4.4.4 4 O O O O O O d L & & & k O O O O O O O O O O O O O O O O O O t O O O O O O O O O O O O O O O O J & & & x { O O O O O O O O O O O O O O O O O e.6 O O O O O O O O O #.B u.u.u.u.u.u.u.u.u.u.u.u.u.u.u.u.u.u.u.u.u.u.u.u.u.u.u.u.u.u.u.u.u.u.u.u.u.u.u.u.u.u.u.u.u.u.u.u.u.u.u.u.u.u.u.u.u.u.u.u.u.",
"a d p 5 @ a y e.9 ; e.e.4.4 O O 6 6 + + + + + e & & & & & k + + + + + + + + + + + + + + + + + + i + + + + + + + + + + + + + + + + m & & & & & ! + + + + + + + + + + + + + + + + + O + + + + + + + + + ) %.u.u.u.u.u.u.u.u.u.u.u.u.u.u.u.u.u.u.u.u.u.u.u.u.u.u.u.u.u.u.u.u.u.u.u.u.u.u.u.u.u.u.u.u.u.u.u.u.u.u.u.u.u.u.u.u.u.u.u.u.u.",
"y 5 @ a y 9 r 9 4.4.4 4 O 6 + + 8 8 o o o o o 2 6.+.& & & k o o o o o o o o o o o o o o o o o o 6.o o o o o o o o o o o o o o o o l & & & W N u o o o o o o o o o o o o o o o o - 4.o o o o o o o o o R u.u.u.u.u.u.u.u.u.u.u.u.u.u.u.u.u.u.u.u.u.u.u.u.u.u.u.u.u.u.u.u.u.u.u.u.u.u.u.u.u.u.u.u.u.u.u.u.u.u.u.u.u.u.u.u.u.u.u.u.u.u.",
"r a y 9 r ; e.@ 6 O O 6 + 8 o o - - . . . . . . 2 0.r.&.& k . . . . . . . . . . . . . . . . . . 0 . . . . . . . . . . . . . . . . j & & % :.0 . . . . . . . . . . . . . . . . . 2 ; . . . . . . . . . & u.u.u.u.u.u.u.u.u.u.u.u.u.u.u.u.u.u.u.u.u.u.u.u.u.u.u.u.u.u.u.u.u.u.u.u.u.u.u.u.u.u.u.u.u.u.u.u.u.u.u.u.u.u.u.u.u.u.u.u.u.u.",
"; 9 r ; e.4.4 5 3.+ + 8 o - . . 2 2 3.3.3.3.3.3.3.3.6.o.I T 3.3.3.3.3.3.3.3.3.3.3.3.3.3.3.3.3.3.f 3.3.3.3.3.3.3.3.3.3.3.3.3.3.3.3.w / 4 u 3.3.3.3.3.3.3.3.3.3.3.3.3.3.3.3.3.3.3.t ; 3.3.3.3.3.3.3.3.3.Z u.u.u.u.u.u.u.u.u.u.u.u.u.u.u.u.u.u.u.u.u.u.u.u.u.u.u.u.u.u.u.u.u.u.u.u.u.u.u.u.u.u.u.u.u.u.u.u.u.u.u.u.u.u.u.u.u.u.u.u.u.u.",
"4.; e.4.4 O 6 4.@ 3 o - . 2 3.3.3 3                     * q.                                    =                                 2.$ i                                       0 ; -                   , ,.u.u.u.u.u.u.u.u.u.u.u.u.u.u.u.u.u.u.u.u.u.u.u.u.u.u.u.u.u.u.u.u.u.u.u.u.u.u.u.u.u.u.u.u.u.u.u.u.u.u.u.u.u.u.u.u.u.u.u.u.u.",
"6 4 O 6 + 8 o o 5 8 6.3 3   t t i i 6.6.6.6.6.6.6.6.6.6.6.6.6.6.6.6.6.6.6.6.6.6.6.6.6.6.6.6.6.6.u 6.6.6.6.6.6.6.6.6.6.6.6.6.6.6.6.6.6.6.6.6.6.6.6.6.6.6.6.6.6.6.6.6.6.6.6.0 = 3.4.6.6.6.6.6.6.6.6.6.6.6.Z u.u.u.u.u.u.u.u.u.u.u.u.u.u.u.u.u.u.u.u.u.u.u.u.u.u.u.u.u.u.u.u.u.u.u.u.u.u.u.u.u.u.u.u.u.u.u.u.u.u.u.u.u.u.u.u.u.u.u.u.u.",
"8 6 + 8 o - - . . p 6 f 2.6.6.6.0 0 2.2.2.2.2.2.2.2.2.2.2.2.2.2.2.2.2.2.2.2.2.2.2.2.2.2.2.2.2.2.0.2.2.2.2.2.2.2.2.2.2.2.2.2.2.2.2.2.2.2.2.2.2.2.2.2.2.2.2.2.2.2.2.2.2.f * u - ; 0 2.2.2.2.2.2.2.2.2.2.2.3 ..u.u.u.u.u.u.u.u.u.u.u.u.u.u.u.u.u.u.u.u.u.u.u.u.u.u.u.u.u.u.u.u.u.u.u.u.u.u.u.u.u.u.u.u.u.u.u.u.u.u.u.u.u.u.u.u.u.u.u.u.",
"- 8 o - - . 2 3.3   4 5 3.f q.q.q.q.$ $ $ $ $ $ $ $ $ $ $ $ $ $ $ $ $ $ $ $ $ $ $ $ $ $ $ $ $ $ [ $ $ $ $ $ $ $ $ $ $ $ $ $ $ $ $ $ $ $ $ $ $ $ $ $ $ $ $ $ $ $ $ $ $ * t 9 - = = = = = = = = = = = = = = = $.' u.u.u.u.u.u.u.u.u.u.u.u.u.u.u.u.u.u.u.u.u.u.u.u.u.u.u.u.u.u.u.u.u.u.u.u.u.u.u.u.u.u.u.u.u.u.u.u.u.u.u.u.u.u.u.u.u.u.",
"- o o - . 2 3.3   t i 3 4 y p p 5 5 @ @ @ @ @ @ @ @ @ @ @ @ @ @ @ @ @ @ @ @ @ @ @ @ @ @ @ @ @ @ - @ @ @ @ @ @ @ @ @ @ @ @ @ @ @ @ @ @ @ @ @ @ @ @ @ @ @ @ @ @ @ @ @ @ ; 8 0 * * * * * * * * * * * * * * * * * n V Q u.u.u.u.u.u.u.u.u.u.u.u.u.u.u.u.u.u.u.u.u.u.u.u.u.u.u.u.u.u.u.u.u.u.u.u.u.u.u.u.u.u.u.u.u.u.u.u.u.u.u.u.u.u.u.u.",
". - . 2 3.3   t i 6.0 2.f = * * u u 0.0.0.0.0.0.0.0.0.0.0.0.0.0.0.0.0.0.0.0.0.0.0.0.0.0.0.0.0.0.0.0.0.0.0.0.0.0.0.0.0.0.0.0.0.0.0.0.0.0.0.0.0.0.0.0.0.0.0.0.0.0.0.0.0.0.0.0.0.0.0.0.0.0.0.0.0.0.0.0.0.0.0.0.0.0.0.0.0.0.0.0.0.0.0.0.0.0.0.0.0.0.0.0.0.0.0.0.0.0.0.0.0.0.0.0.0.0.0.0.0.0.0.0.0.0.0.0.0.0.0.0.0.0.0.0.0.0.0.0.0.0.0.0.",
"2 . 2 3.3   t i 6.0 2.f = * u u 0.0.q.q.q.q.q.q.q.q.q.q.q.q.q.q.q.q.q.q.q.q.q.q.q.q.q.q.q.q.q.q.q.q.q.q.q.q.q.q.q.q.q.q.q.q.q.q.q.q.q.q.q.q.q.q.q.q.q.q.q.q.q.q.q.q.q.q.q.q.q.q.q.q.q.q.q.q.q.q.q.q.q.q.q.q.q.q.q.q.q.q.q.q.q.q.q.q.q.q.q.q.q.q.q.q.q.q.q.q.q.q.q.q.q.q.q.q.q.q.q.q.q.q.q.q.q.q.q.q.q.q.q.q.q.q.q.q.q.q.q.q.q.q.q.q.",
"h b =.v v h d p 5 @ a y y 9 r r ; ; e.e.e.e.e.e.e.e.e.e.e.e.e.e.e.e.e.e.e.e.e.e.e.e.e.e.e.e.e.e.e.e.e.e.e.e.e.e.e.e.e.e.e.e.e.e.e.e.e.e.e.e.e.e.e.e.e.e.e.e.e.e.e.e.e.e.e.e.e.e.e.e.e.e.e.e.e.e.e.e.e.e.e.e.e.e.e.e.e.e.e.e.e.e.e.e.e.e.e.e.e.e.e.e.e.e.e.e.e.e.e.e.e.e.e.e.e.e.e.e.e.e.e.e.e.e.e.e.e.e.e.e.e.e.e.e.e.e.e.e.e.e.e.e.",
"1 7 q < < : > , 1 1 w.r.8.5.5.5.7.7.9.9.9.9.9.9.9.9.9.9.9.9.9.9.9.9.9.9.9.9.9.9.9.9.9.9.9.9.9.9.9.9.9.9.9.9.9.9.9.9.9.9.9.9.9.9.9.9.9.9.9.9.9.9.9.9.9.9.9.9.9.9.9.9.9.9.9.9.9.9.9.9.9.9.9.9.9.9.9.9.9.9.9.9.9.9.9.9.9.9.9.9.9.9.9.9.9.9.9.9.9.9.9.9.9.9.9.9.9.9.9.9.9.9.9.9.9.9.9.9.9.9.9.9.9.9.9.9.9.9.9.9.9.9.9.9.9.9.9.9.9.9.9.9."
};
