/* XPM */
static const char *SearchBarBack[] = {
/* columns rows colors chars-per-pixel */
"95 24 256 2 ",
"   c #1C74A9",
".  c gray23",
"X  c #0F2838",
"o  c gray27",
"O  c #3B4145",
"+  c #0E2C40",
"@  c #758B9B",
"#  c #4C6474",
"$  c gray25",
"%  c #0A1218",
"&  c #384650",
"*  c gray16",
"=  c gray14",
"-  c #2C719B",
";  c #A8BECD",
":  c #054973",
">  c gray9",
",  c #3A3E41",
"<  c gray26",
"1  c #3C3C3C",
"2  c #060606",
"3  c #939393",
"4  c #274C63",
"5  c #173951",
"6  c #143347",
"7  c #0A3D5D",
"8  c #C5C5C5",
"9  c #1B3343",
"0  c #35424C",
"q  c #0B4264",
"w  c #2C6080",
"e  c #05649F",
"r  c #193D56",
"t  c #0C4569",
"y  c #357EA8",
"u  c #052841",
"i  c #0C5582",
"p  c #3E85AE",
"a  c #1C5D86",
"s  c gray10",
"d  c #3984B0",
"f  c #3A454C",
"g  c #162E3E",
"h  c #2F7AA7",
"j  c #2B5B79",
"k  c #181818",
"l  c #2A4353",
"z  c #1D1D1D",
"x  c #131313",
"c  c #142A39",
"v  c #354B5A",
"b  c #095E91",
"n  c #0C4C75",
"m  c #1D6D9D",
"M  c #285F81",
"N  c #1971A6",
"B  c #122838",
"V  c #13232E",
"C  c #3A4851",
"Z  c #112736",
"A  c #111111",
"S  c #4E4E4E",
"D  c #0D5A8A",
"F  c #19628E",
"G  c #1C2A35",
"H  c #2A5672",
"J  c #1D4B68",
"K  c #11364E",
"L  c #0C0C0C",
"P  c #062539",
"I  c #274052",
"U  c #222222",
"Y  c #2A5069",
"T  c #096196",
"R  c #090909",
"E  c #0E3149",
"W  c #2C688D",
"Q  c #061824",
"!  c gray7",
"~  c #0D3955",
"^  c gray33",
"/  c #21455D",
"(  c gray32",
")  c #202020",
"_  c #165176",
"`  c #114565",
"'  c #263E50",
"]  c #12527A",
"[  c #112F43",
"{  c #0B1822",
"}  c #0E0E0E",
"|  c #272727",
" . c #0B2333",
".. c #054E7A",
"X. c gray34",
"o. c #15547A",
"O. c #29495E",
"+. c #505050",
"@. c #123E5A",
"#. c #232F38",
"$. c #16425F",
"%. c #16567E",
"&. c #0D354D",
"*. c #243139",
"=. c #2A5D7E",
"-. c #154765",
";. c #1C2125",
":. c #28465A",
">. c #082C45",
",. c #3D87B2",
"<. c #163A53",
"1. c #0D2F45",
"2. c #2A546E",
"3. c #30759E",
"4. c #162732",
"5. c #1E70A1",
"6. c #2D6B91",
"7. c #27475C",
"8. c #122D3F",
"9. c #0D1E2A",
"0. c #17699A",
"q. c #123952",
"w. c #0F6396",
"e. c #151B1E",
"r. c #2F2F2F",
"t. c #102A3B",
"y. c #051C2C",
"u. c #0E334D",
"i. c #3D3E3F",
"p. c #1E435C",
"a. c #112B3D",
"s. c #113045",
"d. c #070D11",
"f. c #353535",
"g. c gray21",
"h. c gray19",
"j. c #313131",
"k. c #14374F",
"l. c #2B678B",
"z. c #1D6B9A",
"x. c #044771",
"c. c #294E65",
"v. c #0B324B",
"b. c #3E83AC",
"n. c #2A5977",
"m. c #274558",
"M. c #162C3B",
"N. c #373737",
"B. c #D2D2D2",
"V. c gray12",
"C. c #3F3F3F",
"Z. c #3E3E3E",
"A. c #7D93A2",
"S. c #3E8BB8",
"D. c #323232",
"F. c #0A5886",
"G. c #2D6E95",
"H. c #9A9A9A",
"J. c #24475F",
"K. c #0E3F5D",
"L. c #2C678A",
"P. c #174562",
"I. c #1D6C9B",
"U. c #0B3A58",
"Y. c #2B78A5",
"T. c #2B6C93",
"R. c #294D64",
"E. c #2A4F67",
"W. c #126EA4",
"Q. c #2B7EB0",
"!. c #19384C",
"~. c #646464",
"^. c #3A4B57",
"/. c #23445B",
"(. c #122837",
"). c #A7A7A7",
"_. c #062235",
"`. c #060809",
"'. c #2E4E65",
"]. c #283E4D",
"[. c #1E73A6",
"{. c #1A6998",
"}. c #3682AF",
"|. c #156290",
" X c #0D3752",
".X c gray24",
"XX c #7E96A7",
"oX c #1E6996",
"OX c #0B496F",
"+X c #145881",
"@X c #181A1B",
"#X c #163C55",
"$X c #164867",
"%X c #121415",
"&X c #144B6C",
"*X c #176C9E",
"=X c gray36",
"-X c #195377",
";X c #151515",
":X c #10334B",
">X c #4D555B",
",X c #173447",
"<X c #092C43",
"1X c #345870",
"2X c #0B334C",
"3X c #0C354F",
"4X c #0A4F7A",
"5X c #276990",
"6X c #27485F",
"7X c #2C5E7D",
"8X c #29678D",
"9X c #294B61",
"0X c #07161F",
"qX c #637E90",
"wX c #045484",
"eX c #0F527B",
"rX c #2B6487",
"tX c #2A658A",
"yX c #2B6689",
"uX c #11171C",
"iX c #1E74A6",
"pX c #0E3D5A",
"aX c #257BAD",
"sX c #0A4061",
"dX c #0C0F11",
"fX c #26648B",
"gX c #295C7B",
"hX c #31404A",
"jX c #708695",
"kX c #7E7E7E",
"lX c #27536E",
"zX c #265877",
"xX c #2B6A90",
"cX c #275D7D",
"vX c #2A6D96",
"bX c #1D252B",
"nX c #296F99",
"mX c #8EA5B6",
"MX c #0D6092",
"NX c #3181B1",
"BX c #284E67",
"VX c #1D6692",
"CX c #2B4D64",
"ZX c #3F89B5",
"AX c #10293A",
"SX c #12293A",
"DX c #13699D",
"FX c #1A577D",
"GX c #156B9F",
"HX c #869CAC",
"JX c gray22",
"KX c #343434",
"LX c #1E1E1E",
"PX c #393939",
"IX c gray30",
"UX c gray20",
/* pixels */
"S X.X.X.^ ^ ^ ^ ^ ( ( +.+.S S S S S IXIXIXIXIXIXIXIXIXIXIXIXIXIXIXIXIXIXIXIXIXIXIXIXIXIXIXIXIXIXIXIXIXIXIXIXIXIXIXIXIXIXIXIXIXIXIXIXIXIXIXIXIXIXIXIXIXIXIXIXIXIXIXIXIXIXIXIXIXIXIXIXIXIXIXIXIX",
"Z.o o < < < $ $ C.Z.Z..X1 . . . . . PXPXPXPXPXPXPXPXPXPXPXPXPXPXPXPXPXPXPXPXPXPXPXPXPXPXPXPXPXPXPXPXPXPXPXPXPXPXPXPXPXPXPXPXPXPXPXPXPXPXPXPXPXPXPXPXPXPXPXPXPXPXPXPXPXPXPXPXPXPXPXPXPXPXPXPXPX",
".Xo < < $ $ $ C.Z..Xi.O O f C C C C & & & & & & & & & & & & & & & & & & & & & & & & & & & & & f 0 , PXJXJXJXJXJXJXJXJXJXJXJXJXJXJXJXJXJXJXJXJXJXJXJXJXJXJXJXJXJXJXJXJXJXJXJXJXJXJXJXJXJXJXJXJX",
".X< < $ $ $ C.Z.i., f v /.r k.k.k.k.k.k.k.k.k.k.k.k.k.k.k.k.k.k.k.k.k.k.k.k.k.k.k.k.k.k.k.k.k.k.k.,X;.z z z z z z z z z z z z z z z z z z z z z z z z z z z z z z z z U * UXN.N.N.N.N.N.N.N.N.",
".X< < $ $ $ C.C.O ^.6X$.8Xy ZX,.p p b.b.b.b.b.b.b.b.b.b.b.b.b.b.b.b.b.b.b.b.b.b.b.b.b.p ,.S.S.S.aX1X>XIXIXIXIXIXIXIXIXIXIXIXIXIXIXIXIXIXIXIXIXIXIXIXIXIXIXIXIXIXIXIXIX< f.) * N.N.N.N.N.N.N.N.",
"1 < $ $ C.C.C.O v p.M ,.y 3.G.6.W W l.l.l.l.l.l.l.l.l.l.l.l.l.l.l.l.l.l.l.l.l.l.l.l.l.W T.- Y.Q.  J.0 g.g.g.g.g.g.g.g.g.g.g.g.g.g.g.g.g.g.g.g.g.g.g.g.g.g.g.g.g.g.g.g.. $ o r.= f.g.g.g.g.g.g.",
". $ $ C.C.Z.O ^.p.nXd 3.6.rXw 7Xj j n.n.n.n.n.n.n.n.n.n.n.n.n.n.n.n.n.n.n.n.n.n.n.n.n.j M tXvXY.  J.0 f.f.f.f.f.f.f.f.f.f.f.f.f.f.f.f.f.f.f.f.f.f.f.f.f.f.f.f.f.f.f.f.f.f.JX< D.* f.f.f.f.f.f.",
"PXC.Z..X.X.Xf CXa }.- L.7XH 2.Y Y E.c.c.c.c.c.c.c.c.c.c.c.c.c.c.c.c.c.c.c.c.c.c.c.c.c.Y H gXrXnXN J.0 UXUXUXUXUXUXUXUXUXUXUXUXUXUXUXUXUXUXUXUXUXUXUXUXUXUXUXUXUXUXUXUXUXUXUXUXZ.U r.UXUXUXUXUX",
"JX.X1 1 . , v J NX- yXj 2.R.O.O.:.:.m.m.m.m.m.m.m.m.m.m.qXXXm.m.m.m.m.m.m.m.m.m.m.m.m.7.4 lXcX5X*X/ hXj.j.j.j.j.j.j.j.j.j.j.j.j.j.=X).o j.j.j.j.j.j.j.j.j.j.j.j.j.j.j.j.j.j.j.D.PX| j.j.j.j.j.",
"N.1 . . . O '.a h xX=.2.9Xm.l I I I ' ' ' ' ' ' ' ' # mX; XX' ' ' ' ' ' ' ' ' ' ' ' ' I 7.BXzXfX0./ hXh.h.h.h.h.h.h.h.h.h.h.h.h.h.( B.B.3 r.h.h.h.h.h.h.h.h.h.h.h.h.h.h.h.h.h.h.f.= h.h.h.h.h.",
"= * * | | *.r 0.oXFXJ r !.9 g g M.M.M.M.M.M.M.M.9 @ ; ; ; A.M.M.M.M.M.M.M.M.M.M.M.M.M.g ,X#X$X%.MXK G s s s s s s s s s s s s s z o B.B.B.8 ~.s s s s s s s s s s s s s s s s s LXs s s s s s ",
"= | | = = *.<.N F -XP.#X,Xg M.M.c c c c c c c ].; ; ; ; ; A.c c c c c c c c c c c c c g 6 <.` o.MX:XG k s s s s s s s s s s s s s o B.B.B.B.B.3 s s s s s s s s s s s s s s s s s s s s s s s ",
"U = = = U #.<.N F _ P.<.,Xg c c B B B B B B Z Z  .jX; ; ; A.B B B B B B B B B B B B B a.s.q.` ] b :X4.> > > > > > > > > > > > > > o B.B.B.8 ^ R > > > > > > > > > > > > > > > > > z > > > > > ",
") = U U ) G <.m |.o.-.<.6 8.SXSXB (.Z Z Z Z Z Z Z y.l HX; A.Z Z Z Z Z Z Z Z Z Z Z Z Z t.[ q.` ] b E 4.;X;X;X;X;X;X;X;X;X;X;X;X;X;X< B.B.kX2 L ;X;X;X;X;X;X;X;X;X;X;X;X;X;X;X;X;Xx V.;X;X;X;X;X",
"V.U ) V.LXbX5 a w.+X&X@.K s.8.a.t.AXX X X X X X X X  .y.# @ X X X X X X X X X X X X X + s.~ ` eXb E V x x x x x x x x x x x x x x < H.z 2 ! x x x x x x x x x x x x x x x x x x A V.x x x x x ",
"z V.LXz z ;.9 $.  D ] ` @.K E s.1.+ + + + + + + + + + + P P + + + + + + + + + + + + + 1.&.pXt i T 1.V A A A A A A A A A A A A A A L 2 } A A A A A A A A A A A A A A A A A A A L V.> A A A A A ",
"s z s s s s V k.a DXF.n t K.~  X3X&.2Xv.v.v.v.v.v.v.v.v.v.v.v.v.v.v.v.v.v.v.v.v.v.v.v.3XU.q n F.e >.9.} } } } } } } } } } } } } } } } } } } } } } } } } } } } } } } } } } L R x z } } } } } } ",
"k s s k > > e.c u.VXGXF.4XOXt q sX7 7 7 7 7 7 7 7 7 7 7 7 7 7 7 7 7 7 7 7 7 7 7 7 7 7 sXt n i T e >.9.L L L L L L L L L L L L L L L L L L L L L L L L L L L L L L L L L R R > V.L L L L L L L ",
"> k > > > ;X%Xe.t.2X_ iXw.F.....: : x.x.x.x.x.x.x.x.x.x.x.x.x.x.x.x.x.x.x.x.x.x.x.x.x.: ..wXb e e u 0X2 2 2 2 2 2 2 2 2 2 2 2 2 2 2 2 2 2 2 2 2 2 2 2 2 2 2 2 2 2 2 2 R A U > R R R R R R R R ",
"> > > > ;Xx x %XuXV E ~ %.{.[.5.m m I.z.z.z.z.z.z.z.z.z.z.z.z.z.z.z.z.z.z.z.z.z.z.z.z.m 5.      W.#X#.= = = = = = = = = = = = = = = = = = = = = = = = = = = = = = = = V.k L R R R R R R R R R ",
";X> ;Xx x ! A A dX! {  .<X>.u u u u u u u u u u u u u u u u u u u u u u u u u u u u u u u u u u u _.d.2 2 2 2 2 2 2 2 2 2 2 2 2 2 2 2 2 2 2 2 2 2 2 2 2 2 2 2 2 2 2 2 2 2 2 2 2 2 2 2 2 2 2 2 ",
"x ;Xx x ! A A } } L } dX% 0X{ Q Q Q Q Q Q Q Q Q Q Q Q Q Q Q Q Q Q Q Q Q Q Q Q Q Q Q Q Q Q Q Q 0X% d.`.2 2 2 2 2 2 2 2 2 2 2 2 2 2 2 2 2 2 2 2 2 2 2 2 2 2 2 2 2 2 2 2 2 2 2 2 2 2 2 2 2 2 2 2 ",
"* * * * * * | | = = = U U U ) ) V.V.LXLXLXLXLXLXLXLXLXLXLXLXLXLXLXLXLXLXLXLXLXLXLXLXLXLXLXLXLXLXLXLXLXLXLXLXLXLXLXLXLXLXLXLXLXLXLXLXLXLXLXLXLXLXLXLXLXLXLXLXLXLXLXLXLXLXLXLXLXLXLXLXLXLXLXLXLX",
". $ C.Z.Z..X1 . . . PXJXN.g.g.g.f.f.KXKXKXKXKXKXKXKXKXKXKXKXKXKXKXKXKXKXKXKXKXKXKXKXKXKXKXKXKXKXKXKXKXKXKXKXKXKXKXKXKXKXKXKXKXKXKXKXKXKXKXKXKXKXKXKXKXKXKXKXKXKXKXKXKXKXKXKXKXKXKXKXKXKXKXKXKX"
};
