/* XPM */
static const char *StartPageListTop[] = {
/* columns rows colors chars-per-pixel */
"48 25 64 1 ",
"  c #888888",
". c #E6EAFF",
"X c #EBEEFF",
"o c #D9DFFF",
"O c #D4DBFF",
"+ c #B6B7B9",
"@ c #D1D9FF",
"# c #D5DCFF",
"$ c gray100",
"% c #DBE1FF",
"& c #D7DEFF",
"* c #C6C7C6",
"= c #A8A9AD",
"- c #DDE3FF",
"; c #CECECE",
": c #D2DAFF",
"> c #CACACA",
", c #D0D0D0",
"< c #D2D2D2",
"1 c #C8C8C8",
"2 c gray80",
"3 c #D6D7D6",
"4 c gainsboro",
"5 c #D5D4D5",
"6 c #D9D8D9",
"7 c #DBDADB",
"8 c gray87",
"9 c #E2E7FF",
"0 c #D2D8FF",
"q c #F9FAFF",
"w c #DFE4FF",
"e c #969697",
"r c gray88",
"t c #F3F5FF",
"y c #F7F9FF",
"u c #EEF1FF",
"i c #F1F3FF",
"p c #F5F7FF",
"a c #FCFDFF",
"s c #C5C5C5",
"d c #FBFCFF",
"f c #D6DCFF",
"g c #C5C6C5",
"h c #DFDFE0",
"j c #DFE0DF",
"k c #DFE0E0",
"l c #C6C5C5",
"z c #AFB2BC",
"x c #E0DFDF",
"c c #E0E0DF",
"v c #999A9F",
"b c #DCE2FB",
"n c #C6CADB",
"m c #D0D5ED",
"M c #D7DBEE",
"N c #D9DCEB",
"B c #C5C5C6",
"V c #C5C6C6",
"C c #C6C5C6",
"Z c #E0DFE0",
"A c gray85",
"S c #8E8E8F",
"D c #CACAC9",
"F c #CCCBCC",
/* pixels */
"@@0@@@@@@@00@@@@@0@@@0@@@00@0@0@@00@00@@@00@0@@0",
"::::@::::::::@:::@:@:@:::::@@@:@@:::::@::@::@:@:",
"OOOOOOOOOOOOOOOOOOOOOOOOOOOOOOOOOOOOOOOOOOOOOOOO",
"####f#f#########f##########f############f#######",
"&&&&&&&&&&&&&&&&&&&&&&&&&&&&&&&&&&&&&&&&&&&&&&&&",
"oooooooooooooooooooooooooooooooooooooooooooooooo",
"%%%%%%%%%%%%%%%%%%%%%%%%%%%%%%%%%%%%%%%%%%%%%%%%",
"------------mzv                  vzm------------",
"wwwwwwwwwwbze+;xrrrrrrrrrrrrrrrrZ,+ezbwwwwwwwwww",
"999999999n==8ccjhhkjhkxxchhkhrjjhkj4==n999999999",
"9..99.9.M Vx88888888888888888888888x8V M9..99.9.",
"........z+4444444444444444444444444444+z........",
"XX.XX.XNeA77777777777777777777777777777eNXXXXX.X",
"XXXXXXX++366AAA6A6AA6AA66AA66AAA6AAAA6A++XXXXXXX",
"uuuuuuue>333333333333333333333333333333Dvuuuuuuu",
"iiiiiii 5555555555555555555555555555555,Siiiiiii",
"ttttttt <<<<<<<<<<<<<<<<<<<<<<<<<<<<<<<< ttttttt",
"ppppppp ,,,,,,,,,,,,,,,,,,,,,,,,,,,,,,,, ppppppp",
"yyyyyyy ;;;;;;;;;;;;;;;;;;;;;;;;;;;;;;;; yyyyyyy",
"qqqqqqq 2222222222222222222F222222222222 qqqqqqq",
"ddddddd >>>>>>>>>>>>>>>>>>>>>>>>>>>>>>>> ddddddd",
"aaaaaaa 11111111111111111111111111111111 aaaaaaa",
"$$$$$$$ ****************V*******V***V*** $$$$$$$",
"$$$$$$$ gVggsgBgsVVVlsVCgssgsslBlsCVslgV $$$$$$$",
"$$$$$$$                                  $$$$$$$"
};
