/* XPM */
static const char *StartPageListBottom[] = {
/* columns rows colors chars-per-pixel */
"48 25 32 1 ",
"  c gray100",
". c #C1C1C1",
"X c #898989",
"o c gray74",
"O c #B9B9B9",
"+ c gray71",
"@ c gray65",
"# c gray61",
"$ c gray77",
"% c #B2B2B2",
"& c #ECECEC",
"* c #C3C3C3",
"= c #C4C3C4",
"- c gray75",
"; c #B7B7B7",
": c #C4C4C3",
"> c #BFBFC0",
", c #C3C3C2",
"< c #B7B8B7",
"1 c #B8B7B7",
"2 c gray72",
"3 c #C4C3C3",
"4 c gray70",
"5 c #FBFBFB",
"6 c #BBBBBB",
"7 c #BCBBBB",
"8 c #C3C4C4",
"9 c #B3B3B4",
"0 c #C0C0C0",
"q c gray86",
"w c #B4B4B4",
"e c #B8B7B8",
/* pixels */
"       XXXXXXXXXXXXXXXXXXXXXXXXXXXXXXXXXX       ",
"       X$$$$$$$$$$$$$$$$$$$$$$$$$$$$$$$$X       ",
"       X*$**=:*88=*$$**3$8**8:*===3$$:$8X       ",
"       X,,*,,*,*,*,****,*,**,****,***,**X       ",
"       X......,..........,...,.....,,..,X       ",
"       X00000000..00.0.0000..00.....00.0X       ",
"       X-------0----0-------->-->>-----0X       ",
"       XooooooooooooooooooooooooooooooooX       ",
"       Xoooooooo7o7oo7o77oo7o7ooooo7ooooX       ",
"       X6666666666666666666666767666666OX       ",
"       #4OOOOOOOOOOOOOOOOOOOOOOOOOOOOOO4#       ",
"       O@eO2OOO2O22O2O222O22O2O2O2OO222@6       ",
"       &X;<;2;;22;;;;;;;1;e1;2;;<;;<1;2X&       ",
"        6@++++++++++++++++++++++++++++@O        ",
"        &X@++++++++++++++++++++w++++w@X&        ",
"         q@#%wwwww9wwwwwwwwwwwwwww4%#@q         ",
"          5-X@@44944444444444444w@@Xo5          ",
"            &o#XXXXXXXXXXXXXXXXXX#o&            ",
"                                                ",
"                                                ",
"                                                ",
"                                                ",
"                                                ",
"                                                ",
"                                                "
};
