/* XPM */
static const char *TabBarBg[] = {
/* columns rows colors chars-per-pixel */
"24 32 21 1 ",
"  c #414141",
". c #4B4B4B",
"X c gray31",
"o c #535353",
"O c gray34",
"+ c gray36",
"@ c #606060",
"# c #646464",
"$ c #686868",
"% c #6C6C6C",
"& c #6F6F6F",
"* c #717171",
"= c #747474",
"- c #777777",
"; c #797979",
": c #7B7B7B",
"> c #7C7C7C",
", c gray49",
"< c #7E7E7E",
"1 c gray50",
"2 c #808080",
/* pixels */
"2221<<,>:;-=*&%$#@+OoX. ",
"2221<<,>:;-=*&%$#@+OoX. ",
"2221<<,>:;-=*&%$#@+OoX. ",
"2221<<,>:;-=*&%$#@+OoX. ",
"2221<<,>:;-=*&%$#@+OoX. ",
"2221<<,>:;-=*&%$#@+OoX. ",
"2221<<,>:;-=*&%$#@+OoX. ",
"2221<<,>:;-=*&%$#@+OoX. ",
"2221<<,>:;-=*&%$#@+OoX. ",
"2221<<,>:;-=*&%$#@+OoX. ",
"2221<<,>:;-=*&%$#@+OoX. ",
"2221<<,>:;-=*&%$#@+OoX. ",
"2221<<,>:;-=*&%$#@+OoX. ",
"2221<<,>:;-=*&%$#@+OoX. ",
"2221<<,>:;-=*&%$#@+OoX. ",
"2221<<,>:;-=*&%$#@+OoX. ",
"2221<<,>:;-=*&%$#@+OoX. ",
"2221<<,>:;-=*&%$#@+OoX. ",
"2221<<,>:;-=*&%$#@+OoX. ",
"2221<<,>:;-=*&%$#@+OoX. ",
"2221<<,>:;-=*&%$#@+OoX. ",
"2221<<,>:;-=*&%$#@+OoX. ",
"2221<<,>:;-=*&%$#@+OoX. ",
"2221<<,>:;-=*&%$#@+OoX. ",
"2221<<,>:;-=*&%$#@+OoX. ",
"2221<<,>:;-=*&%$#@+OoX. ",
"2221<<,>:;-=*&%$#@+OoX. ",
"2221<<,>:;-=*&%$#@+OoX. ",
"2221<<,>:;-=*&%$#@+OoX. ",
"2221<<,>:;-=*&%$#@+OoX. ",
"2221<<,>:;-=*&%$#@+OoX. ",
"2221<<,>:;-=*&%$#@+OoX. "
};
