/* XPM */
static const char *TabBarTab[] = {
/* columns rows colors chars-per-pixel */
"64 16 89 1 ",
"  c #3A3A3A",
". c gray24",
"X c gray25",
"o c #414141",
"O c gray26",
"+ c #434343",
"@ c #444444",
"# c gray28",
"$ c #494949",
"% c gray32",
"& c #565656",
"* c gray34",
"= c gray35",
"- c #5B5B5B",
"; c gray36",
": c #5D5D5D",
"> c #606060",
", c gray38",
"< c #626262",
"1 c gray39",
"2 c #646464",
"3 c #656565",
"4 c #676767",
"5 c #686868",
"6 c #6A6A6A",
"7 c gray42",
"8 c #6C6C6C",
"9 c #6D6D6D",
"0 c gray43",
"q c #6F6F6F",
"w c gray44",
"e c #717171",
"r c #727272",
"t c #747474",
"y c gray46",
"u c #767676",
"i c #777777",
"p c gray47",
"a c #797979",
"s c gray48",
"d c #7B7B7B",
"f c #7C7C7C",
"g c gray49",
"h c #7E7E7E",
"j c gray50",
"k c #808080",
"l c #929292",
"z c #939292",
"x c #929392",
"c c #939393",
"v c #9D9D9D",
"b c #9E9D9D",
"n c #9D9E9D",
"m c #9D9D9E",
"M c #9F9F9F",
"N c #A0A0A0",
"B c gray63",
"V c #A2A2A2",
"C c #A3A2A2",
"Z c #A2A3A2",
"A c #A4A4A4",
"S c #A5A5A5",
"D c #A6A5A5",
"F c #A5A6A5",
"G c #A5A5A6",
"H c gray65",
"J c #A6A7A6",
"K c #A7A7A6",
"L c #A6A6A7",
"P c gray66",
"I c #A9A9A9",
"U c #A9AAA9",
"Y c #AAAAA9",
"T c #A9A9AA",
"R c #AAAAAA",
"E c #ABAAAA",
"W c #AAABAA",
"Q c gray67",
"! c #ACABAB",
"~ c #ACABAC",
"^ c gray68",
"/ c #AEADAD",
"( c #ADAEAD",
") c #ADADAE",
"_ c #AEADAE",
"` c #AEAEAE",
"' c #AFAEAE",
"] c #AEAFAE",
"[ c #AEAEAF",
/* pixels */
"77744:%477777777y77777y74:::777777774:4l[[Y[[[[[[[[[[Y[[l4:>4777",
"pppy74%opypppppppppppppp.%77pppppppp74%o[[[[[Y[Y'Y]'[[[[$%77yipp",
"kppp74:.ppkkkpppppkppppp.:4ypppppppp74:.[Y[[Y[Y[[[Y[[Y[[.=47pppp",
"ppppy4:.pppppppkkpppppkp.:77ppkkpkpky4:.[YYYY[Y['YYY[YYY.:7ypkpp",
"kpkpp7:.pppkkkpkpkpppkkp.:7yppppkppky74.YYYYYYYYYYYYYYYYX:7ykkpk",
"kkpkp74okkkpkpkpkpkkkpkk.47ykkkkpkkpy74oYYYPYYYYYYPYPYYPo47ijppj",
"kkkpp74okkkkkkkkkkkkkpkpo47ykpkpkkpky7:oYPLYLLYYYYPYPPPYo47pkpkk",
"kpkkpy:okkpkkkpkkpkkkkkko47ykkkkkkkkp74oAYALLLAKLLALLLLLo>wpkjkk",
"kkkkp74okkkkkkkkkkkkkkkk.4ypkkkkkkkkpy4.AAAAAAAAAAAAAAAAo4qpkkkk",
"kkkkp74okkkkkkkkkkkkkkkko47pkkkkkkkkp74.AAAAAAAAAAAAAAAA.4qpkkkk",
"kkkkpy4okkkkkkkkkkkkkkkko4yykkkkkkkkpy4oMAAAAAMMAANAAAANo47pkkkk",
"kkkkp77okkkkkkkkkkkkkkkko47pkkkkkkkkp74oMAMAMMAMAMANMANMo4qpkkkk",
"kkkkpy4okkkkkkkkkkkkkkkko47pkkkkkkkkpy4oMAMMMMMMMMMMMMMMo4wpkkkk",
"kkkkpy4okkkkkkkkkkkkkkkk$4ypkkkkkkkkp77oMMMMMMMMMMMMMMMM#4ypkkkk",
"kkkkpy7%pkkkkkkkkkkkkkpp%7yykkkkkkkkpy7%lMMMMMMMMcMMMMMl%7ypkkkk",
"kkkkpy7::pkkkkkkkkkkkky:47ypkkkkkkkkpp74>lMMMcMMMMMMMMl:47ypkkkk"
};
