/* XPM */
static const char *TabCloseButton[] = {
/* columns rows colors chars-per-pixel */
"24 32 33 1 ",
"  c #ABABAC",
". c #163D79",
"X c #354D72",
"o c #576C8C",
"O c #4D5C73",
"+ c #556276",
"@ c #6C7C94",
"# c #A3A3A2",
"$ c #ACABAB",
"% c #B1B1B1",
"& c #AEAEAE",
"* c gray68",
"= c #ACACAC",
"- c gray67",
"; c gray66",
": c #A5A5A5",
"> c #A0A0A0",
", c #9F9F9F",
"< c #9D9D9D",
"1 c gray57",
"2 c #8D8D8D",
"3 c gray53",
"4 c #848484",
"5 c #808080",
"6 c gray49",
"7 c gray48",
"8 c gray47",
"9 c #717171",
"0 c gray42",
"q c gray37",
"w c #4B4B4B",
"e c gray23",
"r c black",
/* pixels */
"000000000000&&&&&&&&&&&&",
"888888888888************",
"777777777777************",
"777777777777------$-- --",
"66wq7666qe56--q9----8w=-",
"65qeq76qeq66;-8e9;-7e0;;",
"6530eqqeq256;;*7e97e0&-;",
"55420eeq2455:;-%6ee0%-;:",
"55539ww03555:::;4ww6 :::",
"555qe09eq555:::8e95e9:#:",
"54qeq110eq55##8e9&&6e9##",
"54wq13310w55>:w0-::=7w#>",
"542135542245># =:>>:--#>",
"554455554555,>#>>,,,>#>,",
"555555555555<<<<<<<<<<<<",
"555555555655<<<<<<<<<<<<",
"000000000000**&&&&&*&&*&",
"888888888888** *********",
"777777777777************",
"777777777777------$-- --",
"66XO7676OX77--Oo$$--@X$-",
"65+.O66+.X56; @.o$;@.+ ;",
"653+.O+.O246;;$@.o8.o%-;",
"5542o..O2455:;;%@..o& ;:",
"5553o..o2555:#;$@..@&:::",
"555+.o@.O465#:#@.@@.@#::",
"55+.o11o.O55#>8.o%%@.o>#",
"54XO2422oX45>:Xo%   @X:>",
"542225542345>:  :>>: ;#,",
"554465554455<>>>>,,,,>>,",
"555555555555<,,,,,,,,,<<",
"555555555556<<,,,,1,,<<<"
};
