/* XPM */
static const char *TcppArt[] = {
/* columns rows colors chars-per-pixel */
"64 64 2 1 ",
"  c #808080",
". c None",
/* pixels */
"................................................................",
"................................................................",
"................................................................",
"................................................................",
"....                         ...                           .....",
"....                         ...                           .....",
"....                         ...                           .....",
"....                         ...                           .....",
"....                         ...                           .....",
"....                         ...                           .....",
"....        ..........       ...      ......      ..............",
"....        ..........       ...      ......      ..............",
"....        ..........       ...      ......      ..............",
"....        ..........       ...      ......      ..............",
"....        ..........       ...      ......      ..............",
"....        ..........       ...      ......      ..............",
"....        ..........       ...      ......      ..............",
"....        ..........       ...      ......      ..............",
"....        ..........       ...      ......      ..............",
"....        ..........       ...      ......      ..............",
"....        ..........       ...      ......      ..............",
"....        ..........       ...      ......         ...........",
"....        ..........       ...      ......         ...........",
"....        ..........       ...      ......         ...........",
"....        ..........       ...      ......         ...........",
"....        ..               ...      ......         ...........",
"....        ..               ...      ........       ...........",
"....        ..               ...      ........       ...........",
"....        ..               ...      ........       ...........",
"....        ..               ...      ........              ....",
"....        ..               ...      ........              ....",
"....        ..      ..       ...      ........              ....",
"....        ..      ..       ...      ........              ....",
"....        ..      ..       ...      ........              ....",
"....        ..      ..       ...      ........              ....",
"....        ..      ..       ...      ........       ..     ....",
"....        ..      ..       ...      ........       ..     ....",
"....        ..      ..       ...      ........       ..     ....",
"....        ..      ..       ...      ........       ..     ....",
"....        ..      ..       ...      ........       ..     ....",
"....        ..      ..       ...      ........       ..     ....",
"....        ..      ..       ...      ........       ..     ....",
"....        ..      ..       ...      ........       ..     ....",
"....        ..      ..       ...                     ..     ....",
"....        ..      ..       ...                     ..     ....",
"......................       ...                     ..     ....",
"......................       ...                     ..     ....",
"......................       ...                     ..     ....",
"......................       ...                     ..     ....",
"......................       ...      ........       ..     ....",
"......................       ...................................",
"......................       ...................................",
"......................       ...................................",
"......................       ...................................",
"....                                                        ....",
"....                                                        ....",
"....                                                        ....",
"....                                                        ....",
"....                                                        ....",
"....                                                        ....",
"................................................................",
"................................................................",
"................................................................",
"................................................................"
};
